<svg xmlns="http://www.w3.org/2000/svg" xmlns:xlink="http://www.w3.org/1999/xlink" viewBox="0 0 689.76 720.06"><defs><style>.cls-1,.cls-10,.cls-11,.cls-12,.cls-13,.cls-14,.cls-15,.cls-16,.cls-17,.cls-18,.cls-19,.cls-20,.cls-21,.cls-22,.cls-23,.cls-24,.cls-25,.cls-26,.cls-27,.cls-28,.cls-29,.cls-3,.cls-30,.cls-31,.cls-32,.cls-33,.cls-34,.cls-35,.cls-4,.cls-5,.cls-6,.cls-7,.cls-8,.cls-9{fill:none;}.cls-2{clip-path:url(#clip-path);}.cls-10,.cls-11,.cls-12,.cls-13,.cls-14,.cls-15,.cls-16,.cls-17,.cls-18,.cls-19,.cls-20,.cls-21,.cls-22,.cls-23,.cls-24,.cls-25,.cls-26,.cls-27,.cls-28,.cls-29,.cls-3,.cls-30,.cls-31,.cls-32,.cls-33,.cls-34,.cls-35,.cls-4,.cls-5,.cls-6,.cls-7,.cls-8,.cls-9{stroke-miterlimit:10;stroke-width:1.71px;}.cls-3{stroke:url(#linear-gradient);}.cls-4{stroke:url(#linear-gradient-2);}.cls-5{stroke:url(#linear-gradient-3);}.cls-6{stroke:url(#linear-gradient-4);}.cls-7{stroke:url(#linear-gradient-5);}.cls-8{stroke:url(#linear-gradient-6);}.cls-9{stroke:url(#linear-gradient-7);}.cls-10{stroke:url(#linear-gradient-8);}.cls-11{stroke:url(#linear-gradient-9);}.cls-12{stroke:url(#linear-gradient-10);}.cls-13{stroke:url(#linear-gradient-11);}.cls-14{stroke:url(#linear-gradient-12);}.cls-15{stroke:url(#linear-gradient-13);}.cls-16{stroke:url(#linear-gradient-14);}.cls-17{stroke:url(#linear-gradient-15);}.cls-18{stroke:url(#linear-gradient-16);}.cls-19{stroke:url(#linear-gradient-17);}.cls-20{stroke:url(#linear-gradient-18);}.cls-21{stroke:url(#linear-gradient-19);}.cls-22{stroke:url(#linear-gradient-20);}.cls-23{stroke:url(#linear-gradient-21);}.cls-24{stroke:url(#linear-gradient-22);}.cls-25{stroke:url(#linear-gradient-23);}.cls-26{stroke:url(#linear-gradient-24);}.cls-27{stroke:url(#linear-gradient-25);}.cls-28{stroke:url(#linear-gradient-26);}.cls-29{stroke:url(#linear-gradient-27);}.cls-30{stroke:url(#linear-gradient-28);}.cls-31{stroke:url(#linear-gradient-29);}.cls-32{stroke:url(#linear-gradient-30);}.cls-33{stroke:url(#linear-gradient-31);}.cls-34{stroke:url(#linear-gradient-32);}.cls-35{stroke:url(#linear-gradient-33);}</style><clipPath id="clip-path"><circle class="cls-1" cx="383.25" cy="368.29" r="207.44"/></clipPath><linearGradient id="linear-gradient" x1="911.83" y1="-1908.44" x2="1195.4" y2="-1908.46" gradientTransform="matrix(-0.62, 0.78, -0.78, -0.62, -237, -1765.67)" gradientUnits="userSpaceOnUse"><stop offset="0.01" stop-color="#27a0fc"/><stop offset="1" stop-color="#ffcd29"/></linearGradient><linearGradient id="linear-gradient-2" x1="929.87" y1="-1899.33" x2="1208.22" y2="-1899.35" xlink:href="#linear-gradient"/><linearGradient id="linear-gradient-3" x1="947.91" y1="-1890.22" x2="1221.03" y2="-1890.24" xlink:href="#linear-gradient"/><linearGradient id="linear-gradient-4" x1="965.96" y1="-1881.11" x2="1233.85" y2="-1881.13" xlink:href="#linear-gradient"/><linearGradient id="linear-gradient-5" x1="984" y1="-1872" x2="1246.66" y2="-1872.02" xlink:href="#linear-gradient"/><linearGradient id="linear-gradient-6" x1="1002.04" y1="-1862.89" x2="1259.48" y2="-1862.91" xlink:href="#linear-gradient"/><linearGradient id="linear-gradient-7" x1="1020.09" y1="-1853.79" x2="1272.3" y2="-1853.8" xlink:href="#linear-gradient"/><linearGradient id="linear-gradient-8" x1="1038.13" y1="-1844.68" x2="1285.11" y2="-1844.69" xlink:href="#linear-gradient"/><linearGradient id="linear-gradient-9" x1="1056.18" y1="-1835.57" x2="1297.93" y2="-1835.58" xlink:href="#linear-gradient"/><linearGradient id="linear-gradient-10" x1="1074.23" y1="-1826.46" x2="1310.74" y2="-1826.47" xlink:href="#linear-gradient"/><linearGradient id="linear-gradient-11" x1="1092.28" y1="-1817.35" x2="1323.56" y2="-1817.36" xlink:href="#linear-gradient"/><linearGradient id="linear-gradient-12" x1="1110.33" y1="-1808.24" x2="1336.37" y2="-1808.25" xlink:href="#linear-gradient"/><linearGradient id="linear-gradient-13" x1="1128.38" y1="-1799.14" x2="1349.19" y2="-1799.14" xlink:href="#linear-gradient"/><linearGradient id="linear-gradient-14" x1="1146.43" y1="-1790.03" x2="1362" y2="-1790.03" xlink:href="#linear-gradient"/><linearGradient id="linear-gradient-15" x1="1164.58" y1="-1781.03" x2="1374.9" y2="-1781.03" xlink:href="#linear-gradient"/><linearGradient id="linear-gradient-16" x1="1182.58" y1="-1771.86" x2="1387.67" y2="-1771.87" xlink:href="#linear-gradient"/><linearGradient id="linear-gradient-17" x1="1200.59" y1="-1762.7" x2="1400.44" y2="-1762.7" xlink:href="#linear-gradient"/><linearGradient id="linear-gradient-18" x1="1216.87" y1="-1758.8" x2="1415.01" y2="-1758.8" xlink:href="#linear-gradient"/><linearGradient id="linear-gradient-19" x1="1233.15" y1="-1754.91" x2="1429.57" y2="-1754.91" xlink:href="#linear-gradient"/><linearGradient id="linear-gradient-20" x1="1249.42" y1="-1751.01" x2="1444.13" y2="-1751.01" xlink:href="#linear-gradient"/><linearGradient id="linear-gradient-21" x1="1265.7" y1="-1747.11" x2="1458.69" y2="-1747.11" xlink:href="#linear-gradient"/><linearGradient id="linear-gradient-22" x1="1281.98" y1="-1743.22" x2="1473.26" y2="-1743.22" xlink:href="#linear-gradient"/><linearGradient id="linear-gradient-23" x1="1298.26" y1="-1739.32" x2="1487.82" y2="-1739.32" xlink:href="#linear-gradient"/><linearGradient id="linear-gradient-24" x1="1314.54" y1="-1735.42" x2="1502.38" y2="-1735.42" xlink:href="#linear-gradient"/><linearGradient id="linear-gradient-25" x1="1330.82" y1="-1731.52" x2="1516.94" y2="-1731.52" xlink:href="#linear-gradient"/><linearGradient id="linear-gradient-26" x1="1347.1" y1="-1727.62" x2="1531.5" y2="-1727.62" xlink:href="#linear-gradient"/><linearGradient id="linear-gradient-27" x1="1363.38" y1="-1723.73" x2="1546.06" y2="-1723.73" xlink:href="#linear-gradient"/><linearGradient id="linear-gradient-28" x1="1379.66" y1="-1719.83" x2="1560.62" y2="-1719.83" xlink:href="#linear-gradient"/><linearGradient id="linear-gradient-29" x1="1395.93" y1="-1715.93" x2="1575.18" y2="-1715.93" xlink:href="#linear-gradient"/><linearGradient id="linear-gradient-30" x1="1412.21" y1="-1712.03" x2="1589.74" y2="-1712.03" xlink:href="#linear-gradient"/><linearGradient id="linear-gradient-31" x1="1428.49" y1="-1708.13" x2="1604.29" y2="-1708.13" xlink:href="#linear-gradient"/><linearGradient id="linear-gradient-32" x1="1444.77" y1="-1704.23" x2="1618.85" y2="-1704.23" xlink:href="#linear-gradient"/><linearGradient id="linear-gradient-33" x1="1461.05" y1="-1700.34" x2="1633.41" y2="-1700.34" xlink:href="#linear-gradient"/></defs><title>Asset 5</title><g id="Layer_2" data-name="Layer 2"><g id="Layer_1-2" data-name="Layer 1"><g class="cls-2"><path class="cls-3" d="M526.37.09a1187,1187,0,0,0,51.68,244.23A1186.76,1186.76,0,0,0,689,488.11"/><path class="cls-4" d="M680.71,497.87c-15.3-24.94-32.68-54.53-49.58-87.44-6.37-12.41-12.82-25.51-19.22-39.49-4.58-10-9.27-20.69-13.92-31.89-8.65-20.88-16.15-41.27-24.21-64.74-3-8.71-5.88-17.34-8.69-26-2.63-8.06-5.16-15.9-7.63-23.73-6.24-19.85-12.56-40.23-18.51-60.21-5.88-19.77-9.84-38.13-16.66-58.67-6.75-20.33-9.71-38.76-13-56.14-3.12-16.31-6.05-31.81-8-46.31"/><path class="cls-5" d="M672.4,507.63C657,483,638.12,452.51,620.09,418.71c-6.63-12.43-13.45-25.72-20.25-40.29-4.63-9.94-9.54-20.94-14.41-32.72-9-21.79-16-41.64-24.43-66.66-3.1-9.15-6-18-8.88-26.74-2.72-8.34-5.38-16.3-8-24.32-6.33-19.39-13.54-40.29-20.73-61-6.64-19.15-10.27-36.07-20.34-58.14-9.58-21-12.58-39-16.58-55.76s-7.93-32.24-10.36-46.65"/><path class="cls-6" d="M664.09,517.4C648.48,493.11,628.22,461.67,609,427c-6.88-12.45-14.07-25.94-21.26-41.1-4.69-9.87-9.81-21.19-14.92-33.54-9.4-22.71-15.81-42-24.65-68.59-3.2-9.57-6.17-18.62-9.06-27.47-2.81-8.61-5.58-16.7-8.36-24.91-6.41-18.93-14.47-40.34-23-61.82-7.33-18.55-10.61-34-24-57.62-12.32-21.68-15.5-39.28-20.12-55.38-4.86-16.93-9.82-32.66-12.71-47"/><path class="cls-7" d="M655.78,527.16c-15.76-24-37.45-56.33-57.78-91.89-7.13-12.47-14.69-26.16-22.29-41.9-4.73-9.81-10.08-21.45-15.42-34.36-9.77-23.63-15.63-42.38-24.87-70.52-3.3-10-6.31-19.26-9.23-28.21s-5.8-17.1-8.74-25.5c-6.48-18.48-15.34-40.39-25.18-62.63-7.95-18-10.88-32-27.69-57.09-15-22.39-18.5-39.55-23.67-55C435.12,42.8,429.2,27,425.85,12.74"/><path class="cls-8" d="M647.47,536.92c-15.91-23.63-39-56.93-60.52-93.37-7.37-12.49-15.3-26.38-23.3-42.71-4.78-9.74-10.35-21.7-15.93-35.18-10.14-24.54-15.46-42.74-25.09-72.44-3.4-10.44-6.45-19.91-9.41-29s-6-17.5-9.11-26.09a670.14,670.14,0,0,0-27.41-63.44c-8.49-17.36-11.1-30-31.36-56.57-17.65-23.12-21.53-39.8-27.22-54.6-6.75-17.61-13.6-33.52-17.4-47.67"/><path class="cls-9" d="M639.15,546.69c-16.06-23.31-40.55-57.55-63.24-94.86-7.61-12.52-15.91-26.6-24.33-43.51-4.82-9.68-10.62-21.95-16.42-36-10.53-25.45-15.29-43.11-25.31-74.36-3.51-10.88-6.6-20.55-9.6-29.68-3.11-9.46-6.19-17.91-9.48-26.68-6.57-17.59-16.92-40.53-29.63-64.25-9-16.8-11.3-28.08-35-56-20.27-23.88-24.62-40.05-30.76-54.22-7.77-17.94-15.49-33.95-19.76-48"/><path class="cls-10" d="M630.84,556.45c-16.21-23-42.1-58.17-66-96.34-7.85-12.54-16.53-26.82-25.35-44.32-4.86-9.61-10.89-22.2-16.93-36.82-10.9-26.38-15.12-43.48-25.53-76.3-3.61-11.3-6.74-21.18-9.77-30.41-3.21-9.74-6.4-18.31-9.85-27.27-6.61-17.14-17.65-40.63-31.86-65.06-9.46-16.25-11.48-26.15-38.72-55.52C384,99.75,379.11,84.13,372.56,70.57c-8.83-18.26-17.38-34.37-22.11-48.34"/><path class="cls-11" d="M622.53,566.21c-16.36-22.66-43.63-58.79-68.71-97.82a515.6,515.6,0,0,1-26.37-45.12c-4.89-9.56-11.16-22.46-17.43-37.65-11.27-27.29-14.94-43.85-25.75-78.22-3.71-11.74-6.88-21.83-9.95-31.15-3.3-10-6.59-18.72-10.22-27.86-6.64-16.7-18.3-40.76-34.08-65.86-9.89-15.73-11.64-24.25-42.4-55C362.16,102.07,356.7,87,349.77,74.08c-9.93-18.57-19.26-34.81-24.45-48.69"/><path class="cls-12" d="M614.22,576c-16.52-22.34-45.16-59.43-71.44-99.31a491.61,491.61,0,0,1-27.4-45.92c-4.92-9.5-11.42-22.72-17.93-38.47-11.64-28.21-14.76-44.22-26-80.15-3.82-12.17-7-22.47-10.14-31.89-3.4-10.3-6.77-19.13-10.59-28.45-6.65-16.27-18.91-40.92-36.31-66.67-10.28-15.22-11.79-22.36-46.06-54.47C340.34,104.37,334.26,90,327,77.58c-11.08-18.84-21.16-35.24-26.8-49"/><path class="cls-13" d="M605.91,585.74c-16.67-22-46.67-60.06-74.18-100.79a474.77,474.77,0,0,1-28.41-46.73c-5-9.44-11.7-23-18.43-39.29-12-29.13-14.6-44.59-26.19-82.08-3.92-12.6-7.17-23.1-10.31-32.62-3.5-10.57-7-19.54-11-29a356.43,356.43,0,0,0-38.54-67.48C388.23,173,387,167.22,349.15,133.77c-30.64-27.12-37.35-40.89-44.94-52.69-12.28-19.08-23-35.66-29.15-49.36"/><path class="cls-14" d="M597.6,595.5c-16.82-21.68-48.18-60.7-76.91-102.27a462.32,462.32,0,0,1-29.44-47.53c-5-9.39-12-23.22-18.93-40.12-12.39-30-14.42-44.95-26.41-84-4-13-7.31-23.75-10.49-33.36-3.59-10.85-7.14-20-11.33-29.63a332.16,332.16,0,0,0-40.76-68.28c-11-14.28-12.09-18.65-53.42-53.43-33.22-27.95-40.59-41-48.49-52.3-13.52-19.28-24.93-36.09-31.5-49.7"/><path class="cls-15" d="M589.28,605.27c-17-21.36-49.67-61.36-79.63-103.76a448.86,448.86,0,0,1-30.46-48.34,441.19,441.19,0,0,1-19.44-40.93c-12.76-31-14.25-45.33-26.63-85.93-4.11-13.47-7.45-24.39-10.67-34.1A313.81,313.81,0,0,0,410.75,262a311.6,311.6,0,0,0-43-69.1c-11.38-13.83-12.23-16.8-57.1-52.9-35.8-28.8-43.85-41.18-52-51.91C243.83,68.65,231.82,51.57,224.79,38"/><path class="cls-16" d="M581,615c-17.12-21-51.16-62-82.37-105.24a439.17,439.17,0,0,1-31.48-49.14,429.9,429.9,0,0,1-19.94-41.76C434.05,387,433.11,373.2,420.34,331c-4.22-13.89-7.6-25-10.85-34.83a289.29,289.29,0,0,0-12.08-30.8,294.3,294.3,0,0,0-45.21-69.9c-11.71-13.42-12.36-15-60.76-52.38-38.39-29.66-47.13-41.3-55.58-51.53-16.14-19.54-28.71-36.95-36.2-50.38"/><path class="cls-17" d="M572.66,624.8c-17.27-20.72-52.65-62.68-85.1-106.73a431.53,431.53,0,0,1-32.51-50,421.65,421.65,0,0,1-20.44-42.58c-13.51-32.79-13.9-46.06-27.06-89.78-4.32-14.33-7.74-25.66-11-35.57a270,270,0,0,0-12.44-31.39,280.28,280.28,0,0,0-47.44-70.71c-12.05-13-12.5-13.16-64.44-51.85-41-30.52-50.4-41.39-59.13-51.15-17.5-19.58-30.6-37.38-38.54-50.72"/><path class="cls-18" d="M564.35,634.56c-17.43-20.39-54.07-63.4-87.84-108.21A433.88,433.88,0,0,1,443,475.6a414,414,0,0,1-20.94-43.4c-13.89-33.71-13.73-46.43-27.29-91.71-4.42-14.76-7.88-26.31-11.21-36.31a253.08,253.08,0,0,0-12.81-32c-6.64-13.71-21.63-42.94-49.66-71.52-12.39-12.62-12.57-11.45-68.12-51.32-43.5-31.48-53.67-41.46-62.67-50.77C171.39,79,157.8,60.79,149.4,47.53"/><path class="cls-19" d="M556,644.32c-17.58-20.06-55.6-64-90.57-109.69a419,419,0,0,1-34.55-51.56,405.24,405.24,0,0,1-21.44-44.22c-14.26-34.62-13.55-46.8-27.51-93.64-10-33.61-15-50.42-24.57-69.61-6.62-13.3-21.95-43.47-51.88-72.32-12.72-12.26-12.79-9.54-71.8-50.8-46.14-32.27-56.95-41.51-66.21-50.38a313.42,313.42,0,0,1-43.24-51.41"/><path class="cls-20" d="M538.5,649c-17.1-20.55-53.5-63.67-87.21-108.51-9.59-12.85-21.19-28.72-33.54-50.74a419.08,419.08,0,0,1-21.08-43.34c-14-33.65-14-46.28-27.87-91.43l-3.52-11.31c-7.83-25.29-12.85-40.13-21.23-56.63-6.92-13.58-22.17-42.8-50.88-70.94-12.75-12.5-13.56-11-69.66-50.59-44.06-31.21-55-40.78-64.43-49.93a327,327,0,0,1-42.54-50.28"/><path class="cls-21" d="M521,653.75c-16.63-21-51.55-63.21-83.86-107.32a462.37,462.37,0,0,1-32.53-49.93,433.34,433.34,0,0,1-20.71-42.45c-13.75-32.68-14.41-45.8-28.25-89.22-1.24-3.89-2.45-7.55-3.57-11-7.9-24.4-13-39.09-21.36-55.23-7.21-13.88-22.37-42.16-49.86-69.56-12.79-12.75-14.34-12.43-67.53-50.39-42-30.16-53-40.07-62.65-49.48A348,348,0,0,1,108.81,80"/><path class="cls-22" d="M503.44,658.47c-16.16-21.52-49.52-62.81-80.51-106.13a490.68,490.68,0,0,1-31.52-49.12,452.23,452.23,0,0,1-20.34-41.57c-13.5-31.7-14.85-45.3-28.63-87-1.24-3.78-2.48-7.34-3.63-10.74-7.91-23.52-13.11-38.05-21.48-53.84-7.51-14.16-22.55-41.52-48.85-68.18-12.82-13-15.2-13.76-65.39-50.19-40-29-51-39.34-60.87-49a371.16,371.16,0,0,1-41.14-48"/><path class="cls-23" d="M485.91,663.18c-15.69-22-47.48-62.42-77.15-104.94a506.85,506.85,0,0,1-30.52-48.31c-5.11-9.28-12.52-23.34-20-40.68-13.25-30.73-15.29-44.8-29-84.81-1.26-3.67-2.52-7.14-3.69-10.46-7.93-22.65-13.25-37-21.61-52.45-7.81-14.44-22.71-40.9-47.84-66.8-12.85-13.24-16-15.16-63.25-50-37.9-27.92-49-38.62-59.1-48.56a398.86,398.86,0,0,1-40.43-46.93"/><path class="cls-24" d="M468.37,667.9c-15.21-22.49-45.42-62-73.79-103.76a544.45,544.45,0,0,1-29.51-47.49c-5.1-9.34-12.33-23.06-19.61-39.8-13-29.76-15.75-44.3-29.37-82.6-1.27-3.57-2.56-6.94-3.74-10.18-7.94-21.77-13.41-35.95-21.74-51.06-8.11-14.72-22.87-40.29-46.82-65.41C230.91,254.09,227,251,182.68,217.82c-35.85-26.84-47.06-37.89-57.33-48.11a432,432,0,0,1-39.73-45.8"/><path class="cls-25" d="M450.84,672.61c-14.74-23-43.36-61.66-70.44-102.56-8.41-12.7-18.15-27.6-28.51-46.69-5.09-9.38-12.12-22.77-19.24-38.91-12.74-28.78-16.2-43.8-29.73-80.39-1.28-3.46-2.6-6.74-3.8-9.91-7.95-20.89-13.57-34.89-21.86-49.66-8.43-15-23-39.69-45.82-64-12.89-13.76-17.59-18-59-49.57-33.78-25.77-45.08-37.16-55.55-47.66a473.53,473.53,0,0,1-39-44.68"/><path class="cls-26" d="M433.31,677.33C419,653.87,392,616,366.22,576c-8.16-12.67-17.53-27.37-27.5-45.87-5.08-9.43-11.92-22.48-18.87-38-12.49-27.81-16.67-43.29-30.11-78.19-1.29-3.35-2.63-6.52-3.86-9.62-7.94-20-13.72-33.83-22-48.27-8.75-15.28-23.15-39.11-44.8-62.64-12.91-14-18.39-19.43-56.84-49.37-31.72-24.7-43.1-36.44-53.77-47.21a527,527,0,0,1-38.33-43.56"/><path class="cls-27" d="M415.77,682C402,658.1,376.56,621.1,352,581.86c-7.91-12.66-16.91-27.16-26.49-45.07-5.07-9.47-11.72-22.19-18.51-37.14-12.24-26.84-17.14-42.79-30.48-76-1.3-3.24-2.66-6.32-3.91-9.34-7.94-19.14-13.89-32.77-22.11-46.87-9.07-15.56-23.27-38.55-43.79-61.27-12.92-14.31-19.18-20.85-54.7-49.16-29.65-23.63-41.13-35.71-52-46.75-15.55-15.82-28-30.67-37.62-42.45"/><path class="cls-28" d="M398.24,686.76c-13.32-24.43-37.12-60.59-60.38-99-7.65-12.64-16.28-26.94-25.48-44.25-5.06-9.53-11.52-21.91-18.14-36.25-12-25.87-17.63-42.29-30.85-73.78-1.32-3.14-2.7-6.12-4-9.06-7.93-18.28-14.06-31.71-22.24-45.48-9.39-15.83-23.37-38-42.77-59.89-12.93-14.58-20-22.28-52.57-48.95-27.58-22.56-39.16-35-50.21-46.3-15-15.35-27.24-29.72-36.92-41.32"/><path class="cls-29" d="M380.71,691.47c-12.85-24.91-35-60.24-57-97.81C316.29,581,308,566.94,299.21,550.22c-5-9.57-11.33-21.62-17.78-35.36-11.73-24.9-18.12-41.77-31.22-71.58-1.33-3-2.73-5.91-4-8.77-7.9-17.41-14.23-30.65-22.36-44.09-9.72-16.1-23.46-37.44-41.76-58.5-12.92-14.88-20.75-23.73-50.43-48.75-25.5-21.5-37.19-34.24-48.43-45.85C68.81,222.46,56.75,208.55,47,197.12"/><path class="cls-30" d="M363.18,696.19c-12.38-25.4-32.91-59.91-53.68-96.62-7.13-12.61-15-26.52-23.46-42.63-5-9.63-11.13-21.34-17.41-34.48C257.15,498.53,250,481.21,237,453.09c-1.35-2.91-2.77-5.71-4.09-8.49-7.88-16.55-14.41-29.58-22.48-42.7-10.07-16.36-23.55-36.9-40.76-57.12-12.9-15.17-21.53-25.18-48.29-48.54-23.42-20.45-35.23-33.5-46.65-45.4C61,236.46,49.11,223,39.25,211.76"/><path class="cls-31" d="M345.64,700.91c-11.9-25.89-30.78-59.58-50.31-95.44-6.87-12.6-14.41-26.3-22.46-41.82-5-9.67-10.93-21-17-33.59-11.24-22.95-19.15-40.73-32-67.16-1.36-2.81-2.79-5.51-4.14-8.21-7.85-15.69-14.6-28.51-22.61-41.31-10.41-16.62-23.62-36.37-39.74-55.73-12.88-15.48-22.3-26.65-46.16-48.34-21.34-19.41-33.27-32.76-44.87-44.94-13.25-13.91-24.86-26.89-34.82-38"/><path class="cls-32" d="M328.11,705.62c-11.43-26.37-28.64-59.25-47-94.25-6.6-12.59-13.78-26.08-21.46-41-5-9.73-10.72-20.77-16.67-32.71-11-22-19.68-40.2-32.34-64.95-1.37-2.7-2.82-5.32-4.19-7.93-7.81-14.83-14.79-27.44-22.74-39.92A582.13,582.13,0,0,0,145,370.51c-12.84-15.79-23.05-28.12-44-48.14-19.24-18.37-31.31-32-43.1-44.48C45.23,264.47,33.84,252,23.79,241.05"/><path class="cls-33" d="M310.58,710.34c-10.95-26.86-26.49-58.93-43.61-93.06-6.32-12.59-13.14-25.88-20.45-40.2-5-9.78-10.53-20.48-16.3-31.82-10.73-21-20.22-39.66-32.71-62.75-1.4-2.58-2.85-5.11-4.26-7.64-7.75-14-15-26.37-22.86-38.53-11.11-17.12-23.72-35.34-37.71-53-12.79-16.12-23.8-29.61-41.89-47.94-17.13-17.35-29.36-31.26-41.32-44-12.1-12.93-23.27-25-33.41-35.72"/><path class="cls-34" d="M293.05,715.05c-10.48-27.34-24.33-58.61-40.26-91.87-6-12.58-12.49-25.67-19.44-39.38C228.4,574,223,563.6,217.41,552.86c-10.47-20-20.77-39.11-33.08-60.54-1.42-2.47-2.87-4.91-4.31-7.36-7.7-13.14-15.16-25.29-23-37.13-11.47-17.38-23.76-34.85-36.7-51.59-12.71-16.45-24.51-31.11-39.75-47.73C65.59,332.16,53.15,318,41,304.93c-11.56-12.41-22.48-24-32.71-34.6"/><path class="cls-35" d="M275.51,719.77A1185.71,1185.71,0,0,0,166.79,495.05,1186.44,1186.44,0,0,0,.61,285"/></g></g></g></svg>