<svg xmlns="http://www.w3.org/2000/svg" xmlns:xlink="http://www.w3.org/1999/xlink" viewBox="0 0 900.2 949.39"><defs><style>.cls-1,.cls-10,.cls-11,.cls-12,.cls-13,.cls-14,.cls-15,.cls-16,.cls-17,.cls-18,.cls-19,.cls-20,.cls-21,.cls-22,.cls-23,.cls-24,.cls-25,.cls-26,.cls-27,.cls-28,.cls-29,.cls-3,.cls-30,.cls-31,.cls-32,.cls-33,.cls-34,.cls-35,.cls-4,.cls-5,.cls-6,.cls-7,.cls-8,.cls-9{fill:none;}.cls-2{clip-path:url(#clip-path);}.cls-10,.cls-11,.cls-12,.cls-13,.cls-14,.cls-15,.cls-16,.cls-17,.cls-18,.cls-19,.cls-20,.cls-21,.cls-22,.cls-23,.cls-24,.cls-25,.cls-26,.cls-27,.cls-28,.cls-29,.cls-3,.cls-30,.cls-31,.cls-32,.cls-33,.cls-34,.cls-35,.cls-4,.cls-5,.cls-6,.cls-7,.cls-8,.cls-9{stroke-miterlimit:10;stroke-width:2.24px;}.cls-3{stroke:url(#linear-gradient);}.cls-4{stroke:url(#linear-gradient-2);}.cls-5{stroke:url(#linear-gradient-3);}.cls-6{stroke:url(#linear-gradient-4);}.cls-7{stroke:url(#linear-gradient-5);}.cls-8{stroke:url(#linear-gradient-6);}.cls-9{stroke:url(#linear-gradient-7);}.cls-10{stroke:url(#linear-gradient-8);}.cls-11{stroke:url(#linear-gradient-9);}.cls-12{stroke:url(#linear-gradient-10);}.cls-13{stroke:url(#linear-gradient-11);}.cls-14{stroke:url(#linear-gradient-12);}.cls-15{stroke:url(#linear-gradient-13);}.cls-16{stroke:url(#linear-gradient-14);}.cls-17{stroke:url(#linear-gradient-15);}.cls-18{stroke:url(#linear-gradient-16);}.cls-19{stroke:url(#linear-gradient-17);}.cls-20{stroke:url(#linear-gradient-18);}.cls-21{stroke:url(#linear-gradient-19);}.cls-22{stroke:url(#linear-gradient-20);}.cls-23{stroke:url(#linear-gradient-21);}.cls-24{stroke:url(#linear-gradient-22);}.cls-25{stroke:url(#linear-gradient-23);}.cls-26{stroke:url(#linear-gradient-24);}.cls-27{stroke:url(#linear-gradient-25);}.cls-28{stroke:url(#linear-gradient-26);}.cls-29{stroke:url(#linear-gradient-27);}.cls-30{stroke:url(#linear-gradient-28);}.cls-31{stroke:url(#linear-gradient-29);}.cls-32{stroke:url(#linear-gradient-30);}.cls-33{stroke:url(#linear-gradient-31);}.cls-34{stroke:url(#linear-gradient-32);}.cls-35{stroke:url(#linear-gradient-33);}</style><clipPath id="clip-path"><circle class="cls-1" cx="474.15" cy="415.49" r="271.53"/></clipPath><linearGradient id="linear-gradient" x1="-208.34" y1="213.27" x2="162.8" y2="213.27" gradientTransform="translate(149.35 108.42) rotate(-6.69)" gradientUnits="userSpaceOnUse"><stop offset="0" stop-color="#e743f2"/><stop offset="1" stop-color="#ffcd29"/></linearGradient><linearGradient id="linear-gradient-2" x1="-185.55" y1="225.09" x2="178.75" y2="225.09" xlink:href="#linear-gradient"/><linearGradient id="linear-gradient-3" x1="-162.76" y1="236.92" x2="194.7" y2="236.92" xlink:href="#linear-gradient"/><linearGradient id="linear-gradient-4" x1="-139.97" y1="248.75" x2="210.65" y2="248.75" xlink:href="#linear-gradient"/><linearGradient id="linear-gradient-5" x1="-117.18" y1="260.58" x2="226.6" y2="260.58" xlink:href="#linear-gradient"/><linearGradient id="linear-gradient-6" x1="-94.38" y1="272.4" x2="242.56" y2="272.4" xlink:href="#linear-gradient"/><linearGradient id="linear-gradient-7" x1="-71.59" y1="284.23" x2="258.51" y2="284.23" xlink:href="#linear-gradient"/><linearGradient id="linear-gradient-8" x1="-48.79" y1="296.06" x2="274.46" y2="296.06" xlink:href="#linear-gradient"/><linearGradient id="linear-gradient-9" x1="-26" y1="307.88" x2="290.41" y2="307.88" xlink:href="#linear-gradient"/><linearGradient id="linear-gradient-10" x1="-3.2" y1="319.71" x2="306.36" y2="319.71" xlink:href="#linear-gradient"/><linearGradient id="linear-gradient-11" x1="19.6" y1="331.54" x2="322.31" y2="331.54" xlink:href="#linear-gradient"/><linearGradient id="linear-gradient-12" x1="42.4" y1="343.36" x2="338.26" y2="343.36" xlink:href="#linear-gradient"/><linearGradient id="linear-gradient-13" x1="65.2" y1="355.19" x2="354.21" y2="355.19" xlink:href="#linear-gradient"/><linearGradient id="linear-gradient-14" x1="88" y1="367.02" x2="370.17" y2="367.02" xlink:href="#linear-gradient"/><linearGradient id="linear-gradient-15" x1="114.81" y1="379.31" x2="390.12" y2="379.31" xlink:href="#linear-gradient"/><linearGradient id="linear-gradient-16" x1="142.14" y1="391.67" x2="410.59" y2="391.67" xlink:href="#linear-gradient"/><linearGradient id="linear-gradient-17" x1="169.62" y1="404.05" x2="431.22" y2="404.05" xlink:href="#linear-gradient"/><linearGradient id="linear-gradient-18" x1="190.23" y1="409.07" x2="449.59" y2="409.07" xlink:href="#linear-gradient"/><linearGradient id="linear-gradient-19" x1="210.86" y1="414.09" x2="467.98" y2="414.09" xlink:href="#linear-gradient"/><linearGradient id="linear-gradient-20" x1="231.52" y1="419.12" x2="486.39" y2="419.12" xlink:href="#linear-gradient"/><linearGradient id="linear-gradient-21" x1="252.21" y1="424.15" x2="504.84" y2="424.15" xlink:href="#linear-gradient"/><linearGradient id="linear-gradient-22" x1="272.94" y1="429.18" x2="523.32" y2="429.18" xlink:href="#linear-gradient"/><linearGradient id="linear-gradient-23" x1="293.71" y1="434.22" x2="541.84" y2="434.22" xlink:href="#linear-gradient"/><linearGradient id="linear-gradient-24" x1="314.52" y1="439.26" x2="560.41" y2="439.26" xlink:href="#linear-gradient"/><linearGradient id="linear-gradient-25" x1="335.39" y1="444.31" x2="579.03" y2="444.31" xlink:href="#linear-gradient"/><linearGradient id="linear-gradient-26" x1="356.33" y1="449.37" x2="597.72" y2="449.37" xlink:href="#linear-gradient"/><linearGradient id="linear-gradient-27" x1="377.75" y1="454.49" x2="616.88" y2="454.49" xlink:href="#linear-gradient"/><linearGradient id="linear-gradient-28" x1="399.88" y1="459.69" x2="636.77" y2="459.69" xlink:href="#linear-gradient"/><linearGradient id="linear-gradient-29" x1="422.02" y1="464.88" x2="656.65" y2="464.88" xlink:href="#linear-gradient"/><linearGradient id="linear-gradient-30" x1="444.15" y1="470.08" x2="676.53" y2="470.08" xlink:href="#linear-gradient"/><linearGradient id="linear-gradient-31" x1="466.29" y1="475.28" x2="696.41" y2="475.28" xlink:href="#linear-gradient"/><linearGradient id="linear-gradient-32" x1="488.42" y1="480.48" x2="716.29" y2="480.48" xlink:href="#linear-gradient"/><linearGradient id="linear-gradient-33" x1="510.56" y1="485.68" x2="736.17" y2="485.68" xlink:href="#linear-gradient"/></defs><title>Asset 4</title><g id="Layer_2" data-name="Layer 2"><g id="Layer_1-2" data-name="Layer 1"><g class="cls-2"><path class="cls-3" d="M.87,623.83a1552.77,1552.77,0,0,0,178.22-273.9A1552.4,1552.4,0,0,0,302,21.57"/><path class="cls-4" d="M317.92,20.23C309,57.47,297.7,101,282.88,147.06c-5.59,17.38-11.74,35.47-18.75,54.33-5,13.51-10.57,27.74-16.65,42.41C236.17,271.13,224.24,297,210,326.12c-5.29,10.85-10.61,21.5-16,32.12-5,9.87-9.92,19.46-14.89,29-12.59,24.15-25.6,48.87-38.6,72.87-12.86,23.75-26.18,44.42-38.89,69.74-12.57,25.06-26.89,44.88-39.9,64-12.22,18-23.85,35-35.45,50.29"/><path class="cls-5" d="M333.82,18.89c-8.47,37.08-19.29,82.75-33.88,130.73-5.37,17.63-11.36,36.25-18.56,56-4.91,13.49-10.55,28.22-16.94,43.63-11.81,28.53-23.75,53.33-39.09,84.32-5.59,11.33-11.07,22.22-16.53,33-5.19,10.22-10.09,20-15.09,29.87-12.08,23.81-24.76,49.84-37.29,75.68-11.58,23.88-23.89,42.9-35,72.65-10.57,28.31-24.48,47.77-36.28,67-11.7,19-22.49,37.18-33.59,52.77"/><path class="cls-6" d="M349.72,17.54c-8,36.93-18.37,84.78-32.73,134.64-5.15,17.88-11,37-18.35,57.71-4.8,13.48-10.54,28.7-17.24,44.86-12.32,29.72-24.25,53.51-40.67,86.3-5.9,11.83-11.53,22.94-17,33.81-5.36,10.57-10.27,20.59-15.29,30.76-11.59,23.46-24,50.74-36,78.48-10.39,23.95-21.69,41.33-31.11,75.57-8.66,31.48-22,50.72-32.64,69.89C97.5,649.74,87.53,668.9,76.94,684.83"/><path class="cls-7" d="M365.62,16.2C358,53,348.15,103,334.05,154.73c-4.94,18.14-10.62,37.81-18.16,59.41-4.69,13.46-10.52,29.18-17.53,46.08-12.82,30.92-24.75,53.69-42.25,88.29-6.2,12.32-12,23.67-17.56,34.65s-10.45,21.17-15.49,31.66c-11.11,23.1-23.19,51.6-34.67,81.29-9.26,24-19.57,39.71-27.22,78.49-6.83,34.61-19.49,53.72-29,72.81-10.63,21.34-19.79,41.48-29.87,57.75"/><path class="cls-8" d="M381.52,14.85c-7.15,36.61-16.59,88.81-30.42,142.44-4.74,18.38-10.25,38.58-18,61.1-4.6,13.44-10.51,29.67-17.83,47.3C302,297.8,290.07,319.57,271.49,356c-6.51,12.81-12.45,24.4-18.07,35.5-5.7,11.27-10.64,21.73-15.7,32.55-10.65,22.73-22.49,52.41-33.36,84.1-8.21,23.93-17.52,38.08-23.33,81.4-5.07,37.74-16.91,56.77-25.36,75.74-10,22.55-18.44,43.62-28,60.24"/><path class="cls-9" d="M397.42,13.51C390.71,50,381.7,104.32,368.16,159.85c-4.54,18.62-9.89,39.35-17.75,62.79-4.5,13.42-10.49,30.15-18.13,48.53-13.82,33.3-25.75,54.05-45.41,92.26-6.81,13.31-12.91,25.12-18.59,36.35-5.87,11.62-10.82,22.29-15.9,33.44-10.19,22.36-21.85,53.19-32,86.9-7.23,23.88-15.53,36.45-19.45,84.32-3.35,40.86-14.28,59.86-21.72,78.66-9.42,23.8-17.09,45.77-26.15,62.73"/><path class="cls-10" d="M413.32,12.17c-6.27,36.28-14.87,92.8-28.11,150.24-4.35,18.87-9.53,40.12-17.55,64.48-4.41,13.39-10.47,30.63-18.42,49.75-14.32,34.5-26.25,54.24-47,94.25-7.12,13.8-13.37,25.85-19.1,37.2-6,12-11,22.85-16.11,34.33-9.75,22-21.28,53.93-30.73,89.71-6.29,23.8-13.58,34.83-15.56,87.23-1.66,44-11.6,63-18.08,81.59-8.74,25.07-15.74,47.91-24.29,65.21"/><path class="cls-11" d="M429.22,10.82c-5.83,36.12-14,94.81-27,154.15a674.12,674.12,0,0,1-17.35,66.17c-4.32,13.37-10.46,31.11-18.72,51-14.83,35.69-26.75,54.41-48.57,96.23-7.42,14.3-13.83,26.57-19.62,38-6.21,12.31-11.22,23.4-16.31,35.22-9.32,21.6-20.78,54.66-29.42,92.51-5.41,23.71-11.67,33.22-11.67,90.15,0,47.14-8.87,66.11-14.44,84.52-8,26.37-14.39,50.05-22.43,67.7"/><path class="cls-12" d="M445.12,9.48c-5.39,36-13.21,96.8-25.8,158.05-4,19.35-8.84,41.65-17.15,67.86-4.23,13.35-10.44,31.6-19,52.2-15.33,36.89-27.26,54.6-50.15,98.22-7.73,14.79-14.29,27.3-20.13,38.89-6.38,12.67-11.43,24-16.52,36.11C287.47,482,276,516.2,268.26,556.14c-4.58,23.61-9.79,31.62-7.79,93.06,1.64,50.29-6.09,69.26-10.8,87.44-7.19,27.7-13,52.2-20.58,70.19"/><path class="cls-13" d="M461,8.14c-4.95,35.8-12.4,98.78-24.64,161.94-3.8,19.59-8.5,42.42-16.95,69.55-4.15,13.33-10.43,32.09-19.3,53.43-15.84,38.08-27.77,54.78-51.74,100.21-8,15.29-14.75,28-20.65,39.74-6.54,13-11.63,24.51-16.72,37-8.48,20.83-20,56.1-26.79,98.13-3.77,23.52-7.92,30-3.9,96,3.27,53.46-3.27,72.42-7.17,90.37-6.29,29-11.68,54.34-18.71,72.68"/><path class="cls-14" d="M476.92,6.79c-4.51,35.64-11.6,100.78-23.49,165.85-3.62,19.83-8.17,43.18-16.74,71.24-4.07,13.3-10.42,32.57-19.6,54.66-16.34,39.27-28.27,55-53.32,102.19-8.34,15.78-15.21,28.75-21.16,40.59-6.72,13.36-11.85,25.06-16.93,37.89-8.08,20.44-19.8,56.81-25.48,100.94-3,23.42-6.07,28.45,0,98.89,4.87,56.63-.42,75.57-3.54,93.3-5.33,30.36-10.33,56.48-16.85,75.16"/><path class="cls-15" d="M492.82,5.45C488.75,40.93,482,108.22,470.49,175.2c-3.45,20.07-7.84,43.94-16.55,72.93A576.31,576.31,0,0,1,434.05,304c-16.85,40.47-28.77,55.14-54.9,104.18-8.64,16.27-15.67,29.47-21.68,41.44a413.07,413.07,0,0,0-17.13,38.78,408.18,408.18,0,0,0-24.16,103.74C313.9,615.49,311.94,619,320.06,694c6.48,59.8,2.47,78.71.1,96.21-4.28,31.7-9,58.64-15,77.66"/><path class="cls-16" d="M508.72,4.1c-3.62,35.32-10.05,104.76-21.18,173.66-3.28,20.31-7.52,44.7-16.34,74.62A563.6,563.6,0,0,1,451,309.48c-17.35,41.67-29.27,55.33-56.47,106.17-9,16.77-16.14,30.2-22.2,42.29A379.29,379.29,0,0,0,355,497.61a386,386,0,0,0-22.85,106.55c-1.57,23.26-2.42,25.31,7.77,104.73,8.08,63,5.39,81.84,3.74,99.14-3.15,33-7.63,60.78-13.13,80.14"/><path class="cls-17" d="M528.65,2.76c-3.18,35.16-9.28,106.75-20,177.56-3.11,20.55-7.2,45.45-16.14,76.31A551.37,551.37,0,0,1,472,315c-17.85,42.85-29.77,55.5-58.05,108.15-9.26,17.26-16.59,30.92-22.71,43.13a353.72,353.72,0,0,0-17.54,40.57,366.77,366.77,0,0,0-21.54,109.36c-.89,23.19-.61,23.75,11.65,107.64,9.68,66.18,8.34,85,7.38,102.07-1.92,34.32-6.27,62.92-11.27,82.62"/><path class="cls-18" d="M549.1,1.42c-2.74,35-8.63,108.72-18.86,181.45-3,20.79-6.94,46.2-15.94,78a543.85,543.85,0,0,1-20.79,59.55c-18.35,44.05-30.27,55.68-59.63,110.15-9.56,17.75-17.05,31.64-23.23,44A333.34,333.34,0,0,0,392.91,516c-6.55,18.84-19.72,59.77-20.23,112.16-.22,23.15,1,22.24,15.54,110.56,11.13,69.4,11.31,88.06,11,105-.6,35.6-4.92,65.07-9.41,85.12"/><path class="cls-19" d="M569.71.07c-2.3,34.84-7.8,110.72-17.71,185.36-2.79,21-6.59,47-15.74,79.7a528.4,528.4,0,0,1-21.08,60.78C496.33,371.15,484.41,381.77,454,438c-21.85,40.38-32.77,60.57-41.69,87.17-6.18,18.44-19.92,60.56-18.92,115,.43,23.12,3,20.66,19.43,113.47,12.85,72.58,14.3,91.13,14.66,107.92a410.7,410.7,0,0,1-7.55,87.6"/><path class="cls-20" d="M589.6,11.94c-3,34.55-9.12,107.79-19.29,180.06-3,20.62-6.88,45.87-15.8,77.52A540.47,540.47,0,0,1,534,328.74c-18.14,43.86-29.77,55.31-58.73,109.63-20.79,39-31.39,59-40,85.17C429,542.83,416,584.29,416.39,637.2c.16,23.69,2.2,23.34,17.41,112.21,11.83,70,13.05,89.24,13.3,106.73a436.35,436.35,0,0,1-7.2,86.63"/><path class="cls-21" d="M609.52,23.8c-3.8,34.27-10.24,104.9-20.89,174.77-3.08,20.22-7.17,44.78-15.85,75.34a551.33,551.33,0,0,1-20,57.66c-17.44,42.48-28.77,54.77-56.25,107.12-19.73,37.58-30,57.5-38.23,83.18-6.45,20.14-18.7,61-18.91,112.34-.1,24.28,1.42,26,15.39,111,10.83,67.4,11.74,87.34,11.95,105.54a478.45,478.45,0,0,1-6.84,85.65"/><path class="cls-22" d="M629.46,35.66c-4.55,34-11.47,102-22.48,169.48-3.23,19.81-7.38,43.7-15.9,73.16a561,561,0,0,1-19.41,56.11C555,375.49,543.91,388.62,517.9,439c-18.66,36.17-28.58,56-36.49,81.19-6.58,21-18.15,61.14-18.91,111-.38,24.86.86,28.67,13.37,109.71,10,64.78,10.48,85.45,10.61,104.35A523.46,523.46,0,0,1,480,930"/><path class="cls-23" d="M649.43,47.53c-5.29,33.7-12.71,99.07-24.07,164.18-3.38,19.41-7.64,42.61-16,71-3.75,12.81-9.79,32.15-18.85,54.55-16,39.7-26.76,53.67-51.29,102.11-17.6,34.77-27.17,54.45-34.76,79.19-6.69,21.83-17.64,61.34-18.91,109.71-.66,25.44.14,31.34,11.36,108.45,9,62.19,9.2,83.56,9.25,103.17a574.71,574.71,0,0,1-6.14,83.7"/><path class="cls-24" d="M669.44,59.39c-6,33.42-14,96.17-25.66,158.89-3.54,19-7.92,41.51-16,68.81-3.76,12.71-9.65,31.43-18.29,53-15.3,38.31-25.75,53.11-48.8,99.6-16.55,33.36-25.74,52.93-33,77.19-6.81,22.69-17.17,61.54-18.91,108.4-1,26-.6,34,9.33,107.2,8.09,59.59,7.95,81.66,7.91,102a643.69,643.69,0,0,1-5.79,82.74"/><path class="cls-25" d="M689.48,71.26c-6.78,33.13-15.23,93.25-27.24,153.59-3.7,18.6-8.19,40.42-16.06,66.63-3.79,12.62-9.52,30.73-17.73,51.43-14.6,36.92-24.75,52.57-46.33,97.1-15.48,32-24.3,51.41-31.29,75.19-6.92,23.55-16.74,61.74-18.91,107.09-1.27,26.61-1.34,36.69,7.31,105.94,7.12,57,6.69,79.77,6.55,100.79a727.88,727.88,0,0,1-5.42,81.76"/><path class="cls-26" d="M709.58,83.12C702,116,693.05,173.46,680.74,231.42c-3.86,18.19-8.47,39.32-16.11,64.45-3.81,12.53-9.39,30-17.17,49.87-13.89,35.54-23.75,52-43.85,94.6-14.42,30.55-22.85,49.9-29.56,73.2-7,24.4-16.32,61.93-18.9,105.77-1.6,27.19-2.09,39.36,5.29,104.68,6.15,54.41,5.43,77.88,5.2,99.6-.35,31.84-2.8,59.44-5.08,80.79"/><path class="cls-27" d="M729.73,95c-8.28,32.57-17.83,87.42-30.42,143-4,17.78-8.76,38.23-16.17,62.27-3.83,12.44-9.25,29.31-16.61,48.32-13.18,34.15-22.75,51.47-41.37,92.09-13.36,29.15-21.4,48.38-27.83,71.2-7.12,25.26-16,62.13-18.9,104.45-1.94,27.78-2.85,42,3.27,103.44,5.17,51.82,4.19,76,3.85,98.41-.47,31.12-2.69,58.33-4.72,79.81"/><path class="cls-28" d="M750,106.85c-9,32.28-19.14,84.5-32,137.71-4.21,17.38-9,37.13-16.22,60.09-3.86,12.35-9.12,28.6-16.06,46.76-12.46,32.77-21.74,50.93-38.88,89.59-12.31,27.75-19.94,46.87-26.1,69.2-7.2,26.13-15.59,62.33-18.9,103.14-2.3,28.37-3.63,44.74,1.25,102.18,4.18,49.24,3,74.09,2.5,97.22-.59,30.41-2.58,57.22-4.37,78.84"/><path class="cls-29" d="M770.65,118.71c-9.78,32-20.48,81.58-33.6,132.42-4.38,17-9.33,36-16.27,57.91-3.89,12.26-9,27.89-15.5,45.21-11.76,31.37-20.74,50.37-36.41,87.08-11.24,26.34-18.47,45.36-24.36,67.2-7.28,27-15.27,62.53-18.9,101.83-2.67,28.95-4.42,47.42-.77,100.92,3.18,46.66,1.71,72.2,1.15,96-.7,29.69-2.48,56.12-4,77.87"/><path class="cls-30" d="M792.07,130.57c-10.52,31.72-21.83,78.66-35.19,127.13-4.56,16.56-9.62,34.93-16.32,55.73-3.92,12.17-8.85,27.19-14.94,43.65-11,30-19.74,49.83-33.93,84.57-10.18,25-17,43.86-22.63,65.21-7.35,27.87-15,62.73-18.89,100.52-3.07,29.53-5.23,50.11-2.79,99.67,2.16,44.07.47,70.3-.21,94.84-.8,29-2.36,55-3.65,76.89"/><path class="cls-31" d="M813.5,142.44c-11.28,31.43-23.21,75.72-36.79,121.83-4.75,16.15-9.91,33.83-16.37,53.56-4,12.07-8.72,26.47-14.39,42.09-10.33,28.6-18.73,49.27-31.44,82.06-9.12,23.54-15.52,42.36-20.9,63.22a746.35,746.35,0,0,0-18.89,99.2c-3.49,30.1-6.05,52.8-4.81,98.41,1.13,41.5-.75,68.41-1.55,93.65-.91,28.26-2.26,53.9-3.31,75.92"/><path class="cls-32" d="M834.92,154.3c-12,31.15-24.6,72.78-38.37,116.54-5,15.73-10.22,32.73-16.43,51.38-4,12-8.58,25.76-13.83,40.53-9.63,27.22-17.72,48.73-29,79.56a604.78,604.78,0,0,0-19.16,61.22,845.26,845.26,0,0,0-18.9,97.88c-3.93,30.68-6.9,55.5-6.83,97.16.08,38.92-2,66.52-2.9,92.47-1,27.54-2.15,52.78-2.95,74.94"/><path class="cls-33" d="M856.34,166.17c-12.77,30.86-26,69.82-40,111.24-5.16,15.31-10.52,31.62-16.48,49.2-4,11.88-8.44,25.05-13.27,39-8.92,25.83-16.72,48.18-26.48,77.06-7,20.73-12.55,39.35-17.43,59.22-7.49,30.48-14.19,63.27-18.89,96.57-4.42,31.24-7.8,58.19-8.85,95.91-1,36.33-3.18,64.62-4.26,91.27-1.08,26.83-2,51.68-2.59,74"/><path class="cls-34" d="M877.77,178c-13.52,30.57-27.45,66.86-41.56,106-5.37,14.89-10.86,30.51-16.53,47-4.09,11.77-8.31,24.34-12.71,37.42-8.21,24.44-15.72,47.63-24,74.55-6,19.33-11.05,37.84-15.7,57.22-7.51,31.36-14,63.44-18.89,95.26s-8.72,60.87-10.87,94.65-4.33,62.74-5.6,90.09c-1.13,26.11-1.93,50.56-2.24,73"/><path class="cls-35" d="M899.19,189.89a1552,1552,0,0,0-148,656.89"/></g></g></g></svg>