<svg xmlns="http://www.w3.org/2000/svg" xmlns:xlink="http://www.w3.org/1999/xlink" viewBox="0 0 670.25 668.23"><defs><style>.cls-1,.cls-10,.cls-11,.cls-12,.cls-13,.cls-14,.cls-15,.cls-16,.cls-17,.cls-18,.cls-19,.cls-2,.cls-20,.cls-21,.cls-22,.cls-23,.cls-24,.cls-25,.cls-26,.cls-27,.cls-28,.cls-3,.cls-4,.cls-5,.cls-6,.cls-7,.cls-8,.cls-9{fill:none;stroke-miterlimit:10;stroke-width:3px;}.cls-1{stroke:url(#linear-gradient);}.cls-2{stroke:url(#linear-gradient-2);}.cls-3{stroke:url(#linear-gradient-3);}.cls-4{stroke:url(#linear-gradient-4);}.cls-5{stroke:url(#linear-gradient-5);}.cls-6{stroke:url(#linear-gradient-6);}.cls-7{stroke:url(#linear-gradient-7);}.cls-8{stroke:url(#linear-gradient-8);}.cls-9{stroke:url(#linear-gradient-9);}.cls-10{stroke:url(#linear-gradient-10);}.cls-11{stroke:url(#linear-gradient-11);}.cls-12{stroke:url(#linear-gradient-12);}.cls-13{stroke:url(#linear-gradient-13);}.cls-14{stroke:url(#linear-gradient-14);}.cls-15{stroke:url(#linear-gradient-15);}.cls-16{stroke:url(#linear-gradient-16);}.cls-17{stroke:url(#linear-gradient-17);}.cls-18{stroke:url(#linear-gradient-18);}.cls-19{stroke:url(#linear-gradient-19);}.cls-20{stroke:url(#linear-gradient-20);}.cls-21{stroke:url(#linear-gradient-21);}.cls-22{stroke:url(#linear-gradient-22);}.cls-23{stroke:url(#linear-gradient-23);}.cls-24{stroke:url(#linear-gradient-24);}.cls-25{stroke:url(#linear-gradient-25);}.cls-26{stroke:url(#linear-gradient-26);}.cls-27{stroke:url(#linear-gradient-27);}.cls-28{stroke:url(#linear-gradient-28);}</style><linearGradient id="linear-gradient" x1="10.58" y1="166.33" x2="115.81" y2="166.33" gradientUnits="userSpaceOnUse"><stop offset="0" stop-color="#e743f2"/><stop offset="1" stop-color="#ffcd29"/></linearGradient><linearGradient id="linear-gradient-2" x1="1.02" y1="178.21" x2="157.4" y2="178.21" xlink:href="#linear-gradient"/><linearGradient id="linear-gradient-3" x1="0" y1="191.91" x2="190.96" y2="191.91" xlink:href="#linear-gradient"/><linearGradient id="linear-gradient-4" x1="4.49" y1="206.32" x2="220.6" y2="206.32" xlink:href="#linear-gradient"/><linearGradient id="linear-gradient-5" x1="13.16" y1="220.52" x2="247.87" y2="220.52" xlink:href="#linear-gradient"/><linearGradient id="linear-gradient-6" x1="25.17" y1="234.81" x2="273.67" y2="234.81" xlink:href="#linear-gradient"/><linearGradient id="linear-gradient-7" x1="39.76" y1="247.96" x2="298.14" y2="247.96" xlink:href="#linear-gradient"/><linearGradient id="linear-gradient-8" x1="57.16" y1="261.26" x2="321.82" y2="261.26" xlink:href="#linear-gradient"/><linearGradient id="linear-gradient-9" x1="76.68" y1="273.98" x2="344.8" y2="273.98" xlink:href="#linear-gradient"/><linearGradient id="linear-gradient-10" x1="97.46" y1="286.07" x2="367.21" y2="286.07" xlink:href="#linear-gradient"/><linearGradient id="linear-gradient-11" x1="118.83" y1="297.17" x2="389.13" y2="297.17" xlink:href="#linear-gradient"/><linearGradient id="linear-gradient-12" x1="140.34" y1="307.56" x2="410.66" y2="307.56" xlink:href="#linear-gradient"/><linearGradient id="linear-gradient-13" x1="161.54" y1="317.32" x2="431.8" y2="317.32" xlink:href="#linear-gradient"/><linearGradient id="linear-gradient-14" x1="181.8" y1="326.61" x2="452.57" y2="326.61" xlink:href="#linear-gradient"/><linearGradient id="linear-gradient-15" x1="201.57" y1="335.63" x2="473.11" y2="335.63" xlink:href="#linear-gradient"/><linearGradient id="linear-gradient-16" x1="229.83" y1="346.33" x2="495.31" y2="346.33" xlink:href="#linear-gradient"/><linearGradient id="linear-gradient-17" x1="258.02" y1="356.59" x2="517.14" y2="356.59" xlink:href="#linear-gradient"/><linearGradient id="linear-gradient-18" x1="286.18" y1="366.52" x2="538.37" y2="366.52" xlink:href="#linear-gradient"/><linearGradient id="linear-gradient-19" x1="314.15" y1="376.36" x2="558.96" y2="376.36" xlink:href="#linear-gradient"/><linearGradient id="linear-gradient-20" x1="341.97" y1="386.15" x2="578.74" y2="386.15" xlink:href="#linear-gradient"/><linearGradient id="linear-gradient-21" x1="369.63" y1="396.03" x2="597.54" y2="396.03" xlink:href="#linear-gradient"/><linearGradient id="linear-gradient-22" x1="397.56" y1="406.04" x2="615.15" y2="406.04" xlink:href="#linear-gradient"/><linearGradient id="linear-gradient-23" x1="426.13" y1="416.17" x2="631.27" y2="416.17" xlink:href="#linear-gradient"/><linearGradient id="linear-gradient-24" x1="455.85" y1="426.33" x2="645.54" y2="426.33" xlink:href="#linear-gradient"/><linearGradient id="linear-gradient-25" x1="487.16" y1="436.32" x2="657.41" y2="436.32" xlink:href="#linear-gradient"/><linearGradient id="linear-gradient-26" x1="520.43" y1="446.39" x2="666.26" y2="446.39" xlink:href="#linear-gradient"/><linearGradient id="linear-gradient-27" x1="557.6" y1="455.32" x2="670.25" y2="455.32" xlink:href="#linear-gradient"/><linearGradient id="linear-gradient-28" x1="603.87" y1="463.28" x2="664.46" y2="463.28" xlink:href="#linear-gradient"/></defs><g id="Layer_2" data-name="Layer 2"><g id="Layer_1-2" data-name="Layer 1"><path class="cls-1" d="M114.49,83.41q-4.76,8.85-9.87,18C86.09,134.58,68,163.17,44.78,198.82c-8.47,13.05-16.71,25.56-24.92,37.9q-3.94,5.94-7.77,11.73s0,0,0,0"/><path class="cls-2" d="M2.29,304.05Q8.62,294,14.74,284.51c7.6-11.7,15-23.25,23.1-35.39,8.29-12.48,16.76-25.26,25.67-38.86,24.76-37.7,42.75-65.06,62.06-99.6,10.5-18.78,19.69-36.55,27.49-52.33q1.51-3.07,3-6.1"/><path class="cls-3" d="M1.31,350.17C12,331.22,22.5,313.5,32.35,298c7.67-12.09,15.15-23.9,23.47-36.45S72.9,235.86,82.25,221.7c26.33-39.75,44.17-65.87,64.27-101.8,11-19.64,20.36-38,28-53.78C180,54.84,185,44,189.59,33.52"/><path class="cls-4" d="M5.84,391.61C21,361.29,36.32,333.44,50,311.43c7.74-12.49,15.27-24.56,23.85-37.51,8.46-12.76,17.38-26.06,27.17-40.78,27.91-41.81,45.61-66.69,66.49-104,11.47-20.5,21-39.48,28.56-55.24,9.06-18.9,16.56-36.51,23.18-53"/><path class="cls-5" d="M246.47,12.17c-7.82,20.88-16.88,43.92-28.95,69.52-7.42,15.74-17.14,35.33-29.1,56.69-21.67,38.7-39.21,62.34-68.71,106.2-10.23,15.28-19.37,28.84-27.92,41.74C83,299.67,75.37,312,67.56,324.89,51.91,350.75,33.25,386.73,16,426.46c-.43,1-.86,2-1.3,2.92h0"/><path class="cls-6" d="M272.17,6.21h0c-.81,2.34-1.64,4.66-2.48,7-8,22.42-17.39,47.64-30.68,76.25-7.31,15.74-17.19,35.92-29.64,58.14-22.45,40.09-39.85,62.5-70.92,108.41-10.68,15.84-20,29.66-28.68,42.7-9.09,13.76-16.74,26.33-24.6,39.63-15.06,25.46-33.73,62.84-50.4,105.19-2.78,7.06-5.52,13.12-8.22,19.26"/><path class="cls-7" d="M41.19,493.42c4-11.76,8.07-20.65,12.38-32.8,16-45,34.73-83.75,49.21-108.81,7.92-13.71,15.63-26.53,25-40.69,8.72-13.19,18.3-27.26,29.42-43.66,32.65-48,49.9-69.13,73.14-110.61,12.93-23.08,23-43.87,30.17-59.59,13.61-29.72,22.86-55.61,30.69-78.35q2.82-8.22,5.54-16.42"/><path class="cls-8" d="M58.63,522c4.16-18.77,8.73-28.55,13.75-44.33,15.17-47.68,34.1-87.77,48-112.42,8-14.12,15.75-27.19,25.36-41.75,8.81-13.33,18.61-27.67,30.18-44.63,34.22-50,51.33-69.94,75.35-112.8,13.42-23.94,23.63-45.35,30.71-61,13.91-30.83,23-57.37,30.68-80.44q4-12,7.73-24"/><path class="cls-9" d="M343.37.43c-3,9.91-6,19.89-9.22,29.86-7.45,23.39-16.47,50.6-30.68,82.54-7,15.68-17.34,37.7-31.25,62.5-24.81,44.25-41.77,62.94-77.57,115-12,17.52-22,32.12-30.93,45.59-9.86,15-17.72,28.28-25.73,42.81-13.35,24.23-32.53,65.66-46.8,116-5.1,18-9.39,27.51-13,53.17h0"/><path class="cls-10" d="M99,570.69c2.66-30.92,6.26-39.69,11-58.84,13.26-53.1,32.8-95.85,45.6-119.66,8-14.95,16-28.5,26.11-43.87,9-13.61,19.22-28.47,31.68-46.55,37.37-54.11,54.19-71.56,79.78-117.2,14.39-25.67,24.91-48.29,31.79-64,14.5-33.06,23.4-60.93,30.67-84.63,3.51-11.44,6.89-22.9,10.14-34.25"/><path class="cls-11" d="M387.69,4.47c-3.38,12.33-6.91,24.78-10.58,37.2-7.09,24-15.88,52.55-30.67,86.73a712,712,0,0,1-32.32,65.41c-26.38,47-43.05,63.23-82,119.4-12.9,18.64-23.37,33.76-32.43,47.51a490.88,490.88,0,0,0-70.89,168.2c-4.25,19.52-6.94,27.46-8.47,61.33h0"/><path class="cls-12" d="M141.84,606.88c.41-34.35,2.16-41.55,5.77-60.88a474.54,474.54,0,0,1,43.2-126.89,468.13,468.13,0,0,1,26.86-46c9.15-13.89,19.84-29.27,33.19-48.47,40.52-58.22,57.05-73.19,84.21-121.6a691.53,691.53,0,0,0,32.86-66.87C383,100.89,391.68,71.7,398.6,47.36c3.68-12.94,7.22-25.91,10.61-38.75"/><path class="cls-13" d="M163.22,620.85c-.59-32.48.28-39.12,3.2-57.77a450.63,450.63,0,0,1,42-130.51,434.89,434.89,0,0,1,27.24-47.05c9.23-14,20.14-29.67,33.93-49.43,42.11-60.27,58.48-74,86.43-123.81A675.52,675.52,0,0,0,389.42,144c15.34-36.41,23.91-66.25,30.66-90.91,3.56-13,7-26,10.27-38.91"/><path class="cls-14" d="M184.16,632.43c-1.37-28.47-1.16-34.77,1.07-52.28,8.13-63.93,30.09-112,40.79-134.12a409.84,409.84,0,0,1,27.62-48.11c9.32-14.18,20.46-30.07,34.69-50.39,43.68-62.32,59.91-74.82,88.64-126a667.56,667.56,0,0,0,33.93-69.77c15.56-37.57,24.05-68,30.67-93,3.3-12.57,6.48-25.17,9.55-37.66"/><path class="cls-15" d="M204.74,642c-1.86-22.75-2.27-28.9-.71-44.77,6.58-66.61,29.4-116.1,39.6-137.74,14.71-31.22,30.95-54.32,63.43-100.52,45.26-64.38,61.34-75.64,90.86-128.21a648.32,648.32,0,0,0,34.47-71.23c15.87-38.67,24.24-69.81,30.66-95.1,3-11.65,5.83-23.33,8.6-34.94"/><path class="cls-16" d="M232.92,652.45c-1.9-28.27-2.2-34.85-.31-52.46,6.89-64.35,28.59-112.79,38.86-135.08,12.47-27.06,26.21-48.21,50.35-83.35,3.38-5,7-10.18,10.78-15.73,43.24-62.54,59.16-75.2,87.7-126.48A670.56,670.56,0,0,0,454,169.47c15.5-37.59,24-68.07,30.64-93,3.16-12,6.23-24,9.2-36"/><path class="cls-17" d="M260.76,660.06c-1.69-31.33-1.74-38.61.42-57.31,7.18-62.09,27.79-109.47,38.13-132.42,12-26.71,25.52-47.79,48.47-82.12,3.27-4.89,6.69-10.07,10.36-15.52,41.06-60.82,57-74.75,84.55-124.74a697.69,697.69,0,0,0,33-68.54c15.14-36.51,23.8-66.31,30.62-90.94,3.24-11.7,6.38-23.43,9.42-35.06"/><path class="cls-18" d="M536.93,68.31C534,79,531,89.75,527.88,100.5c-7,24.29-15.83,53.42-30.6,88.86a727.3,727.3,0,0,1-32.21,67.18c-26.59,48.7-42.43,64-81.38,123-3.53,5.35-6.8,10.47-10,15.31-21.82,33.48-35,54.54-46.58,80.88-10.4,23.62-30,69.93-37.39,129.77-2.39,19.28-2.59,27.46-1.27,59.61h0"/><path class="cls-19" d="M316,667.8c-.82-31-.24-40.14,2.33-59.53C326,550.68,344.53,505.45,355,481.16c11.18-26,24-47,44.69-79.65,3-4.79,6.16-9.84,9.55-15.1,36.87-57.24,52.61-73.86,78.22-121.28,14.47-26.72,24.82-50.12,31.46-65.83,14.49-34.32,23.36-62.82,30.58-86.78,2.74-9.08,5.42-18.18,8-27.22"/><path class="cls-20" d="M343.51,668.22c-.25-28.06.71-38.2,3.4-57.19,7.84-55.34,25.41-99.5,35.91-124.45,10.78-25.6,23.24-46.66,42.82-78.42,2.92-4.73,5.89-9.73,9.13-14.89,34.8-55.43,50.43-73.42,75.06-119.54,13.88-25.92,24-48.74,30.71-64.49,14.14-33.23,23.13-61.07,30.56-84.7q3.17-10,6.21-20"/><path class="cls-21" d="M371.13,666.39c.32-23.77,1.64-34.63,4.35-52.6,8-53.09,24.64-96.16,35.18-121.79,10.38-25.23,22.46-46.29,40.93-77.18,2.81-4.69,5.63-9.62,8.72-14.69,32.73-53.62,48.25-73,71.91-117.81,13.28-25.11,23.18-47.35,29.95-63.14C576,187,585.06,159.86,592.71,136.57q1.71-5.22,3.41-10.45"/><path class="cls-22" d="M399.06,662.17c.84-18.52,2.43-29.53,5-45.62,8.12-50.85,23.86-92.83,34.44-119.13,10-24.85,21.68-45.94,39.05-75.95,2.68-4.64,5.36-9.51,8.3-14.48,30.68-51.8,46.07-72.53,68.75-116.08,12.7-24.29,22.36-46,29.2-61.79,13.09-30.28,22.19-56.24,29.93-78.8"/><path class="cls-23" d="M427.63,655.3c1.17-12.9,2.8-23,5-36,8.23-48.6,23.11-89.49,33.71-116.47,9.61-24.46,20.89-45.59,37.16-74.72,2.56-4.59,5.1-9.39,7.89-14.27,28.64-50,43.89-72.09,65.59-114.34,12.11-23.49,21.54-44.59,28.45-60.45,9.93-22.8,17.72-43.22,24.43-61.64"/><path class="cls-24" d="M457.34,645.19c1.1-7.52,2.38-14.8,3.87-23.12,8.3-46.37,22.35-86.15,33-113.81,9.24-24.08,20.09-45.24,35.28-73.49,2.44-4.54,4.83-9.27,7.48-14.06,26.6-48.14,41.7-71.65,62.42-112.61,11.52-22.68,20.72-43.2,27.7-59.1,6.44-14.66,12-28.36,17.09-41.2"/><path class="cls-25" d="M488.64,630.94c.36-2,.75-4,1.14-6.11,8.35-44.14,21.61-82.8,32.24-111.15,8.88-23.69,19.28-44.9,33.39-72.26,2.32-4.49,4.57-9.15,7.07-13.85,24.58-46.29,39.52-71.2,59.27-110.88,10.92-21.86,19.89-41.82,26.94-57.75q3.84-8.67,7.34-16.93"/><path class="cls-26" d="M664.76,281.3h0c-6,13.21-12.84,28.11-20.63,44C625.36,363.67,610.61,390,588,434.43c-2.34,4.61-4.47,9.2-6.65,13.64-13,26.47-23,47.73-31.51,71-9.22,25.18-19.84,56.76-28,92"/><path class="cls-27" d="M559.05,582c6-20.94,12.52-40.32,18.64-57.47,8.18-22.89,17.64-44.23,29.63-69.79,2.06-4.4,4-8.91,6.24-13.43,20.61-42.57,35.16-70.32,53-107.41q1.22-2.52,2.39-5"/><path class="cls-28" d="M663.11,396.8c-7.52,15.83-15.3,32.33-24,51.35-2,4.43-3.9,8.87-5.83,13.22-10.94,24.66-19.91,46.06-27.74,68.56,0,.16-.11.3-.16.46h0"/></g></g></svg>