<svg xmlns="http://www.w3.org/2000/svg" xmlns:xlink="http://www.w3.org/1999/xlink" viewBox="0 0 670.61 668.31"><defs><style>.cls-1,.cls-10,.cls-11,.cls-12,.cls-13,.cls-14,.cls-15,.cls-16,.cls-17,.cls-18,.cls-19,.cls-2,.cls-20,.cls-21,.cls-22,.cls-23,.cls-24,.cls-25,.cls-26,.cls-27,.cls-28,.cls-29,.cls-3,.cls-4,.cls-5,.cls-6,.cls-7,.cls-8,.cls-9{fill:none;}.cls-1,.cls-10,.cls-11,.cls-12,.cls-13,.cls-14,.cls-15,.cls-16,.cls-17,.cls-18,.cls-19,.cls-2,.cls-20,.cls-21,.cls-22,.cls-23,.cls-24,.cls-25,.cls-26,.cls-27,.cls-28,.cls-3,.cls-4,.cls-5,.cls-6,.cls-7,.cls-8,.cls-9{stroke-miterlimit:10;stroke-width:3.5px;}.cls-1{stroke:url(#linear-gradient);}.cls-2{stroke:url(#linear-gradient-2);}.cls-3{stroke:url(#linear-gradient-3);}.cls-4{stroke:url(#linear-gradient-4);}.cls-5{stroke:url(#linear-gradient-5);}.cls-6{stroke:url(#linear-gradient-6);}.cls-7{stroke:url(#linear-gradient-7);}.cls-8{stroke:url(#linear-gradient-8);}.cls-9{stroke:url(#linear-gradient-9);}.cls-10{stroke:url(#linear-gradient-10);}.cls-11{stroke:url(#linear-gradient-11);}.cls-12{stroke:url(#linear-gradient-12);}.cls-13{stroke:url(#linear-gradient-13);}.cls-14{stroke:url(#linear-gradient-14);}.cls-15{stroke:url(#linear-gradient-15);}.cls-16{stroke:url(#linear-gradient-16);}.cls-17{stroke:url(#linear-gradient-17);}.cls-18{stroke:url(#linear-gradient-18);}.cls-19{stroke:url(#linear-gradient-19);}.cls-20{stroke:url(#linear-gradient-20);}.cls-21{stroke:url(#linear-gradient-21);}.cls-22{stroke:url(#linear-gradient-22);}.cls-23{stroke:url(#linear-gradient-23);}.cls-24{stroke:url(#linear-gradient-24);}.cls-25{stroke:url(#linear-gradient-25);}.cls-26{stroke:url(#linear-gradient-26);}.cls-27{stroke:url(#linear-gradient-27);}.cls-28{stroke:url(#linear-gradient-28);}</style><linearGradient id="linear-gradient" x1="10.55" y1="166.43" x2="116.24" y2="166.43" gradientUnits="userSpaceOnUse"><stop offset="0" stop-color="#13febe"/><stop offset="1" stop-color="#27a1fc"/></linearGradient><linearGradient id="linear-gradient-2" x1="1.02" y1="178.65" x2="157.99" y2="178.65" xlink:href="#linear-gradient"/><linearGradient id="linear-gradient-3" x1="0" y1="191.98" x2="191.38" y2="191.98" xlink:href="#linear-gradient"/><linearGradient id="linear-gradient-4" x1="4.49" y1="206.37" x2="221.02" y2="206.37" xlink:href="#linear-gradient"/><linearGradient id="linear-gradient-5" x1="13.28" y1="220.87" x2="248.29" y2="220.87" xlink:href="#linear-gradient"/><linearGradient id="linear-gradient-6" x1="25.15" y1="234.89" x2="274.1" y2="234.89" xlink:href="#linear-gradient"/><linearGradient id="linear-gradient-7" x1="39.64" y1="247.71" x2="298.56" y2="247.71" xlink:href="#linear-gradient"/><linearGradient id="linear-gradient-8" x1="57.09" y1="261.97" x2="322.23" y2="261.97" xlink:href="#linear-gradient"/><linearGradient id="linear-gradient-9" x1="76.65" y1="274.09" x2="345.2" y2="274.09" xlink:href="#linear-gradient"/><linearGradient id="linear-gradient-10" x1="97.42" y1="286.07" x2="367.62" y2="286.07" xlink:href="#linear-gradient"/><linearGradient id="linear-gradient-11" x1="118.78" y1="297.2" x2="389.54" y2="297.2" xlink:href="#linear-gradient"/><linearGradient id="linear-gradient-12" x1="140.28" y1="307.56" x2="411.06" y2="307.56" xlink:href="#linear-gradient"/><linearGradient id="linear-gradient-13" x1="161.49" y1="317.33" x2="432.2" y2="317.33" xlink:href="#linear-gradient"/><linearGradient id="linear-gradient-14" x1="181.74" y1="326.61" x2="452.97" y2="326.61" xlink:href="#linear-gradient"/><linearGradient id="linear-gradient-15" x1="201.5" y1="335.64" x2="473.51" y2="335.64" xlink:href="#linear-gradient"/><linearGradient id="linear-gradient-16" x1="229.77" y1="346.34" x2="495.71" y2="346.34" xlink:href="#linear-gradient"/><linearGradient id="linear-gradient-17" x1="257.96" y1="356.58" x2="517.53" y2="356.58" xlink:href="#linear-gradient"/><linearGradient id="linear-gradient-18" x1="286.1" y1="366.54" x2="538.77" y2="366.54" xlink:href="#linear-gradient"/><linearGradient id="linear-gradient-19" x1="314.08" y1="376.35" x2="559.35" y2="376.35" xlink:href="#linear-gradient"/><linearGradient id="linear-gradient-20" x1="341.89" y1="386.14" x2="579.12" y2="386.14" xlink:href="#linear-gradient"/><linearGradient id="linear-gradient-21" x1="369.54" y1="396.01" x2="597.92" y2="396.01" xlink:href="#linear-gradient"/><linearGradient id="linear-gradient-22" x1="397.47" y1="406.27" x2="615.61" y2="406.27" xlink:href="#linear-gradient"/><linearGradient id="linear-gradient-23" x1="426.05" y1="416.16" x2="631.64" y2="416.16" xlink:href="#linear-gradient"/><linearGradient id="linear-gradient-24" x1="455.76" y1="426.31" x2="645.9" y2="426.31" xlink:href="#linear-gradient"/><linearGradient id="linear-gradient-25" x1="487.06" y1="436.31" x2="657.77" y2="436.31" xlink:href="#linear-gradient"/><linearGradient id="linear-gradient-26" x1="520.34" y1="446.06" x2="666.47" y2="446.06" xlink:href="#linear-gradient"/><linearGradient id="linear-gradient-27" x1="557.44" y1="455.07" x2="670.61" y2="455.07" xlink:href="#linear-gradient"/><linearGradient id="linear-gradient-28" x1="603.76" y1="463.3" x2="664.82" y2="463.3" xlink:href="#linear-gradient"/></defs><g id="Layer_2" data-name="Layer 2"><g id="Layer_1-2" data-name="Layer 1"><path class="cls-1" d="M114.69,83.47c-3.17,5.9-6.46,11.92-9.87,18C86.29,134.63,68.16,163.22,45,198.87c-8.46,13-16.71,25.56-24.92,37.89-2.63,4-5.2,7.84-7.75,11.7h0"/><path class="cls-2" d="M156.24,52.28h0c-1,2-2,4.06-3,6.11-7.8,15.77-17,33.55-27.49,52.32-19.31,34.54-37.29,61.89-62,99.58-8.9,13.61-17.37,26.38-25.67,38.86C30,261.3,22.54,272.85,15,284.54Q8.83,294,2.5,304.08"/><path class="cls-3" d="M1.52,350.2c10.68-18.94,21.19-36.67,31-52.2C40.22,285.91,47.7,274.1,56,261.56S73.1,235.9,82.44,221.74C108.78,182,126.62,155.88,146.71,120c11-19.64,20.36-38,28-53.78,5.49-11.27,10.46-22.12,15-32.59"/><path class="cls-4" d="M6.05,391.63c15.11-30.31,30.48-58.16,44.11-80.17C57.9,299,65.43,286.9,74,274c8.46-12.76,17.37-26.06,27.17-40.78,27.91-41.8,45.6-66.67,66.48-104,11.47-20.49,21-39.47,28.56-55.22,9.05-18.9,16.55-36.51,23.17-53"/><path class="cls-5" d="M14.87,429.39q.65-1.42,1.29-2.91c17.29-39.72,36-75.7,51.6-101.56C75.57,312,83.15,299.71,92,286.36c8.55-12.91,17.68-26.46,27.92-41.74,29.48-43.85,47-67.49,68.7-106.19,11.95-21.36,21.67-40.94,29.09-56.68,12.07-25.59,21.13-48.63,29-69.51"/><path class="cls-6" d="M272.35,6.28h0c-.82,2.34-1.64,4.66-2.48,7-8,22.42-17.4,47.64-30.69,76.24-7.3,15.73-17.18,35.92-29.63,58.14-22.45,40.08-39.85,62.48-70.91,108.39-10.68,15.83-20,29.65-28.67,42.69-9.09,13.76-16.74,26.33-24.6,39.63C70.31,363.84,51.65,401.21,35,443.55c-2.78,7.05-5.52,13.12-8.22,19.25"/><path class="cls-7" d="M296.89,2.56q-2.72,8.19-5.54,16.42c-7.82,22.74-17.08,48.62-30.68,78.34-7.19,15.71-17.24,36.51-30.17,59.58-23.23,41.48-40.49,62.64-73.13,110.59-11.12,16.4-20.7,30.48-29.42,43.66-9.35,14.16-17.06,27-25,40.68-14.47,25.06-33.22,63.8-49.2,108.8-4.31,12.14-8.43,21-12.38,32.77h0"/><path class="cls-8" d="M320.56.7c-2.5,8-5.08,16-7.73,24-7.63,23.06-16.77,49.61-30.68,80.43-7.08,15.7-17.29,37.1-30.7,61-24,42.86-41.13,62.78-75.35,112.79-11.56,17-21.37,31.29-30.17,44.62-9.61,14.56-17.39,27.63-25.35,41.74-13.91,24.65-32.83,64.74-48,112.41-5,15.78-9.58,25.55-13.74,44.31,0,0,0,0,0,0"/><path class="cls-9" d="M78.38,547.94c3.62-25.66,7.9-35.16,13-53.16,14.27-50.38,33.45-91.8,46.8-116,8-14.53,15.87-27.84,25.73-42.8,8.89-13.47,18.92-28.06,30.93-45.58,35.79-52.06,52.75-70.75,77.55-115,13.91-24.8,24.27-46.81,31.25-62.5,14.2-31.93,23.22-59.14,30.67-82.52,3.17-10,6.25-19.95,9.21-29.86"/><path class="cls-10" d="M99.16,570.68c2.65-30.91,6.25-39.68,11-58.83,13.26-53.09,32.8-95.84,45.6-119.64,8-14.95,16-28.5,26.1-43.86,9-13.61,19.22-28.47,31.68-46.54,37.37-54.11,54.18-71.56,79.77-117.19,14.39-25.66,24.91-48.29,31.78-63.95,14.5-33,23.4-60.92,30.67-84.62,3.51-11.44,6.89-22.9,10.14-34.26"/><path class="cls-11" d="M120.52,590.24c1.53-33.86,4.23-41.79,8.47-61.31a491.07,491.07,0,0,1,70.88-168.18c9.06-13.76,19.53-28.87,32.43-47.51,38.95-56.16,55.61-72.37,82-119.39a712.14,712.14,0,0,0,32.32-65.4c14.78-34.17,23.57-62.69,30.66-86.71,3.67-12.42,7.2-24.87,10.58-37.2"/><path class="cls-12" d="M142,606.86c.41-34.34,2.16-41.54,5.77-60.86A474.64,474.64,0,0,1,191,419.12a467.89,467.89,0,0,1,26.86-46c9.15-13.9,19.84-29.27,33.18-48.47,40.52-58.21,57-73.18,84.21-121.59a693.48,693.48,0,0,0,32.85-66.85c15.07-35.3,23.74-64.48,30.66-88.81,3.68-12.94,7.22-25.91,10.61-38.75"/><path class="cls-13" d="M163.41,620.84c-.6-32.48.27-39.12,3.19-57.77a451.4,451.4,0,0,1,42-130.49,434.67,434.67,0,0,1,27.24-47c9.23-14,20.14-29.68,33.92-49.43,42.1-60.26,58.48-74,86.42-123.79A676.09,676.09,0,0,0,389.57,144c15.34-36.41,23.91-66.25,30.67-90.91,3.55-13,7-26,10.26-38.9"/><path class="cls-14" d="M184.35,632.41c-1.37-28.46-1.17-34.75,1.06-52.26,8.13-63.92,30.09-112,40.79-134.11a409.13,409.13,0,0,1,27.62-48.1c9.31-14.17,20.45-30.07,34.68-50.38,43.67-62.32,59.9-74.82,88.63-126a667.56,667.56,0,0,0,33.93-69.77c15.55-37.56,24-68,30.66-93,3.29-12.56,6.48-25.16,9.55-37.65"/><path class="cls-15" d="M204.92,642c-1.86-22.74-2.27-28.89-.71-44.76,6.58-66.59,29.4-116.08,39.6-137.72,14.71-31.22,30.95-54.31,63.42-100.5,45.25-64.37,61.33-75.63,90.85-128.2a649.81,649.81,0,0,0,34.46-71.21c15.87-38.67,24.23-69.81,30.66-95.1,3-11.65,5.83-23.33,8.6-34.93"/><path class="cls-16" d="M233.1,652.44c-1.9-28.27-2.2-34.85-.31-52.46,6.89-64.34,28.58-112.77,38.85-135.06,12.47-27.06,26.21-48.2,50.35-83.33,3.38-5,7-10.19,10.78-15.74,43.23-62.53,59.15-75.18,87.69-126.45a673.11,673.11,0,0,0,33.71-69.88c15.5-37.58,24-68.06,30.64-93,3.16-12,6.23-24,9.2-36"/><path class="cls-17" d="M260.94,660c-1.69-31.32-1.74-38.6.42-57.3,7.18-62.08,27.78-109.45,38.12-132.4,12-26.71,25.51-47.78,48.46-82.11,3.27-4.89,6.69-10.07,10.37-15.52,41-60.81,57-74.74,84.53-124.72a698.84,698.84,0,0,0,33-68.53c15.13-36.5,23.8-66.3,30.61-90.92,3.24-11.7,6.38-23.43,9.42-35.07"/><path class="cls-18" d="M288.66,665.1c-1.32-32.14-1.12-40.32,1.27-59.6,7.43-59.83,27-106.13,37.38-129.75,11.6-26.34,24.76-47.39,46.58-80.87,3.16-4.84,6.42-10,9.95-15.31,39-59,54.79-74.3,81.38-123a726.87,726.87,0,0,0,32.2-67.18C512.19,154,521,124.85,528,100.56c3.1-10.75,6.13-21.51,9.06-32.19"/><path class="cls-19" d="M316.17,667.78c-.82-30.95-.24-40.13,2.33-59.52,7.65-57.58,26.19-102.81,36.65-127.09,11.18-26,24-47,44.69-79.64,3-4.79,6.16-9.84,9.54-15.1C446.25,329.2,462,312.58,487.6,265.17c14.46-26.72,24.81-50.11,31.45-65.83,14.49-34.31,23.35-62.8,30.58-86.76q4.11-13.64,8-27.22"/><path class="cls-20" d="M343.67,668.2c-.25-28.05.71-38.19,3.4-57.18,7.84-55.33,25.41-99.48,35.91-124.43,10.78-25.6,23.23-46.65,42.81-78.41,2.92-4.74,5.89-9.73,9.13-14.89,34.79-55.43,50.43-73.41,75.05-119.53,13.88-25.91,24-48.73,30.71-64.48,14.14-33.22,23.12-61.06,30.55-84.68q3.16-10,6.21-20"/><path class="cls-21" d="M371.29,666.37c.32-23.77,1.64-34.62,4.35-52.59,8-53.08,24.63-96.15,35.18-121.77,10.38-25.23,22.46-46.29,40.92-77.18,2.8-4.68,5.63-9.61,8.72-14.68,32.72-53.61,48.24-73,71.89-117.8,13.29-25.1,23.19-47.34,30-63.13,13.78-32.14,22.88-59.31,30.53-82.6q1.73-5.24,3.41-10.45"/><path class="cls-22" d="M613.86,150.37h0c-7.74,22.56-16.85,48.5-29.93,78.78-6.84,15.82-16.5,37.49-29.2,61.79C532.06,334.48,516.67,355.21,486,407c-2.95,5-5.63,9.84-8.31,14.47-17.36,30-29.05,51.1-39,75.95-10.58,26.29-26.31,68.27-34.44,119.11-2.57,16.09-4.15,27.1-5,45.61h0"/><path class="cls-23" d="M427.79,655.28c1.17-12.9,2.8-23,5-36,8.22-48.6,23.09-89.48,33.7-116.46,9.61-24.45,20.88-45.57,37.15-74.71,2.56-4.58,5.1-9.38,7.89-14.26,28.63-50,43.89-72.08,65.58-114.33,12.11-23.48,21.54-44.58,28.45-60.44,9.93-22.8,17.72-43.21,24.43-61.63"/><path class="cls-24" d="M457.49,645.17c1.1-7.52,2.38-14.79,3.87-23.11,8.3-46.36,22.34-86.14,33-113.8,9.24-24.07,20.09-45.23,35.27-73.48,2.44-4.54,4.84-9.26,7.48-14,26.6-48.13,41.7-71.64,62.42-112.6,11.52-22.67,20.72-43.2,27.7-59.09,6.44-14.66,12-28.36,17.08-41.2"/><path class="cls-25" d="M488.78,630.92c.37-2,.76-4,1.15-6.1,8.35-44.13,21.6-82.79,32.23-111.14,8.87-23.68,19.28-44.89,33.39-72.25,2.31-4.49,4.57-9.14,7.06-13.84,24.58-46.29,39.52-71.2,59.26-110.87,10.93-21.86,19.89-41.81,26.94-57.74q3.84-8.67,7.34-16.92"/><path class="cls-26" d="M522,611.13c8.12-35.27,18.74-66.85,28-92,8.52-23.29,18.47-44.56,31.51-71,2.18-4.44,4.31-9,6.65-13.63,22.58-44.43,37.34-70.76,56.1-109.14,7.79-15.86,14.66-30.77,20.62-44"/><path class="cls-27" d="M669,328.92c-.78,1.65-1.58,3.32-2.39,5-17.78,37.09-32.34,64.83-52.94,107.4-2.19,4.52-4.18,9-6.24,13.42-12,25.56-21.45,46.89-29.62,69.79C571.71,541.67,565.2,561,559.19,582h0"/><path class="cls-28" d="M663.23,396.82c-7.52,15.83-15.29,32.33-24,51.35-2,4.43-3.9,8.86-5.83,13.21-10.95,24.66-19.91,46.06-27.74,68.56l-.15.43h0"/><circle class="cls-29" cx="335.11" cy="334.35" r="333.96"/></g></g></svg>