<svg xmlns="http://www.w3.org/2000/svg" xmlns:xlink="http://www.w3.org/1999/xlink" viewBox="0 0 670.28 668.27"><defs><style>.cls-1,.cls-10,.cls-11,.cls-12,.cls-13,.cls-14,.cls-15,.cls-16,.cls-17,.cls-18,.cls-19,.cls-2,.cls-20,.cls-21,.cls-22,.cls-23,.cls-24,.cls-25,.cls-26,.cls-27,.cls-28,.cls-3,.cls-4,.cls-5,.cls-6,.cls-7,.cls-8,.cls-9{fill:none;stroke-miterlimit:10;stroke-width:3px;}.cls-1{stroke:url(#linear-gradient);}.cls-2{stroke:url(#linear-gradient-2);}.cls-3{stroke:url(#linear-gradient-3);}.cls-4{stroke:url(#linear-gradient-4);}.cls-5{stroke:url(#linear-gradient-5);}.cls-6{stroke:url(#linear-gradient-6);}.cls-7{stroke:url(#linear-gradient-7);}.cls-8{stroke:url(#linear-gradient-8);}.cls-9{stroke:url(#linear-gradient-9);}.cls-10{stroke:url(#linear-gradient-10);}.cls-11{stroke:url(#linear-gradient-11);}.cls-12{stroke:url(#linear-gradient-12);}.cls-13{stroke:url(#linear-gradient-13);}.cls-14{stroke:url(#linear-gradient-14);}.cls-15{stroke:url(#linear-gradient-15);}.cls-16{stroke:url(#linear-gradient-16);}.cls-17{stroke:url(#linear-gradient-17);}.cls-18{stroke:url(#linear-gradient-18);}.cls-19{stroke:url(#linear-gradient-19);}.cls-20{stroke:url(#linear-gradient-20);}.cls-21{stroke:url(#linear-gradient-21);}.cls-22{stroke:url(#linear-gradient-22);}.cls-23{stroke:url(#linear-gradient-23);}.cls-24{stroke:url(#linear-gradient-24);}.cls-25{stroke:url(#linear-gradient-25);}.cls-26{stroke:url(#linear-gradient-26);}.cls-27{stroke:url(#linear-gradient-27);}.cls-28{stroke:url(#linear-gradient-28);}</style><linearGradient id="linear-gradient" x1="10.85" y1="165.98" x2="115.82" y2="165.98" gradientUnits="userSpaceOnUse"><stop offset="0" stop-color="#27a2fc"/><stop offset="0.31" stop-color="#3ba6e9"/><stop offset="0.79" stop-color="#c6c260"/><stop offset="1" stop-color="#fecd29"/></linearGradient><linearGradient id="linear-gradient-2" x1="1.02" y1="178.21" x2="157.41" y2="178.21" xlink:href="#linear-gradient"/><linearGradient id="linear-gradient-3" x1="0" y1="191.93" x2="190.97" y2="191.93" xlink:href="#linear-gradient"/><linearGradient id="linear-gradient-4" x1="4.34" y1="206.01" x2="220.6" y2="206.01" xlink:href="#linear-gradient"/><linearGradient id="linear-gradient-5" x1="13.16" y1="220.53" x2="247.88" y2="220.53" xlink:href="#linear-gradient"/><linearGradient id="linear-gradient-6" x1="25.17" y1="234.81" x2="273.69" y2="234.81" xlink:href="#linear-gradient"/><linearGradient id="linear-gradient-7" x1="39.69" y1="247.73" x2="298.16" y2="247.73" xlink:href="#linear-gradient"/><linearGradient id="linear-gradient-8" x1="57.16" y1="261.27" x2="321.84" y2="261.27" xlink:href="#linear-gradient"/><linearGradient id="linear-gradient-9" x1="76.7" y1="274.1" x2="344.81" y2="274.1" xlink:href="#linear-gradient"/><linearGradient id="linear-gradient-10" x1="97.47" y1="286.09" x2="367.23" y2="286.09" xlink:href="#linear-gradient"/><linearGradient id="linear-gradient-11" x1="118.83" y1="297.18" x2="389.15" y2="297.18" xlink:href="#linear-gradient"/><linearGradient id="linear-gradient-12" x1="140.34" y1="307.58" x2="410.68" y2="307.58" xlink:href="#linear-gradient"/><linearGradient id="linear-gradient-13" x1="161.55" y1="317.34" x2="431.82" y2="317.34" xlink:href="#linear-gradient"/><linearGradient id="linear-gradient-14" x1="181.81" y1="326.64" x2="452.59" y2="326.64" xlink:href="#linear-gradient"/><linearGradient id="linear-gradient-15" x1="201.58" y1="335.66" x2="473.13" y2="335.66" xlink:href="#linear-gradient"/><linearGradient id="linear-gradient-16" x1="229.84" y1="346.31" x2="495.34" y2="346.31" xlink:href="#linear-gradient"/><linearGradient id="linear-gradient-17" x1="258.04" y1="356.61" x2="517.17" y2="356.61" xlink:href="#linear-gradient"/><linearGradient id="linear-gradient-18" x1="286.19" y1="366.57" x2="538.41" y2="366.57" xlink:href="#linear-gradient"/><linearGradient id="linear-gradient-19" x1="314.17" y1="376.38" x2="559" y2="376.38" xlink:href="#linear-gradient"/><linearGradient id="linear-gradient-20" x1="341.99" y1="386.17" x2="578.77" y2="386.17" xlink:href="#linear-gradient"/><linearGradient id="linear-gradient-21" x1="369.65" y1="396.05" x2="597.57" y2="396.05" xlink:href="#linear-gradient"/><linearGradient id="linear-gradient-22" x1="397.58" y1="406.06" x2="615.18" y2="406.06" xlink:href="#linear-gradient"/><linearGradient id="linear-gradient-23" x1="426.16" y1="416.13" x2="631.31" y2="416.13" xlink:href="#linear-gradient"/><linearGradient id="linear-gradient-24" x1="455.85" y1="426.26" x2="645.57" y2="426.26" xlink:href="#linear-gradient"/><linearGradient id="linear-gradient-25" x1="487.18" y1="436.36" x2="657.44" y2="436.36" xlink:href="#linear-gradient"/><linearGradient id="linear-gradient-26" x1="520.46" y1="446.41" x2="666.29" y2="446.41" xlink:href="#linear-gradient"/><linearGradient id="linear-gradient-27" x1="557.58" y1="455.15" x2="670.28" y2="455.15" xlink:href="#linear-gradient"/><linearGradient id="linear-gradient-28" x1="603.64" y1="464.05" x2="664.49" y2="464.05" xlink:href="#linear-gradient"/></defs><g id="Layer_2" data-name="Layer 2"><g id="Layer_1-2" data-name="Layer 1"><path class="cls-1" d="M12.1,248.43q3.83-5.79,7.75-11.7c8.22-12.33,16.46-24.85,24.93-37.9,23.18-35.65,41.32-64.24,59.84-97.4q5.11-9.15,9.88-18"/><path class="cls-2" d="M2.29,304.07Q8.61,294,14.74,284.53c7.6-11.7,15-23.25,23.1-35.39,8.29-12.48,16.77-25.26,25.67-38.87,24.76-37.7,42.75-65.06,62.07-99.6,10.49-18.78,19.69-36.56,27.49-52.33q1.52-3.08,3-6.12"/><path class="cls-3" d="M1.31,350.19C12,331.24,22.5,313.52,32.35,298,40,285.9,47.5,274.08,55.82,261.54s17.08-25.66,26.43-39.83c26.34-39.75,44.18-65.87,64.28-101.8,11-19.64,20.36-38,28-53.79C180,54.86,185,44,189.6,33.53"/><path class="cls-4" d="M219.21,20.93C212.59,37.39,205.09,55,196,73.91c-7.54,15.76-17.09,34.74-28.56,55.24-20.88,37.32-38.58,62.2-66.5,104-9.79,14.73-18.71,28-27.17,40.79C65.23,286.89,57.7,299,50,311.45c-13.64,22-29,49.85-44.12,80.18h0"/><path class="cls-5" d="M246.48,12.17c-7.82,20.88-16.88,43.92-28.95,69.52-7.42,15.75-17.14,35.34-29.1,56.7-21.67,38.7-39.22,62.34-68.71,106.2-10.24,15.29-19.38,28.84-27.93,41.75C83,299.69,75.37,312,67.57,324.91,51.91,350.77,33.25,386.76,16,426.49c-.43,1-.86,1.95-1.3,2.91h0"/><path class="cls-6" d="M272.19,6.21h0c-.81,2.34-1.64,4.66-2.48,7-8,22.43-17.4,47.65-30.69,76.26-7.31,15.73-17.19,35.92-29.64,58.14-22.45,40.1-39.86,62.5-70.93,108.41-10.68,15.85-20,29.66-28.67,42.71-9.1,13.75-16.74,26.33-24.61,39.63-15.06,25.47-33.73,62.85-50.4,105.2-2.78,7.05-5.52,13.11-8.22,19.24"/><path class="cls-7" d="M296.74,2.48q-2.72,8.21-5.55,16.43c-7.82,22.75-17.08,48.63-30.68,78.35-7.2,15.72-17.25,36.52-30.18,59.6-23.24,41.48-40.49,62.65-73.14,110.61-11.12,16.4-20.71,30.48-29.43,43.67-9.35,14.16-17.06,27-25,40.69C88.3,376.89,69.55,415.64,53.57,460.64c-4.31,12.14-8.43,21-12.38,32.79h0"/><path class="cls-8" d="M58.63,522c4.16-18.76,8.73-28.54,13.75-44.32,15.18-47.68,34.1-87.78,48-112.43,8-14.12,15.75-27.19,25.36-41.75,8.8-13.33,18.61-27.67,30.18-44.63,34.22-50,51.33-69.94,75.35-112.81,13.42-23.94,23.63-45.35,30.71-61C295.9,74.22,305,47.67,312.68,24.6q4-12,7.73-24"/><path class="cls-9" d="M78.19,548c3.61-25.67,7.9-35.18,13-53.19,14.27-50.38,33.46-91.82,46.81-116,8-14.53,15.87-27.84,25.73-42.81,8.89-13.47,18.92-28.07,30.93-45.59,35.8-52.06,52.77-70.76,77.57-115,13.91-24.8,24.28-46.82,31.25-62.51,14.21-31.94,23.23-59.15,30.68-82.54,3.18-10,6.25-19.95,9.22-29.86"/><path class="cls-10" d="M99,570.73c2.65-30.93,6.25-39.7,11-58.85,13.26-53.1,32.8-95.86,45.6-119.67,8-14.95,16-28.5,26.12-43.87,9-13.61,19.22-28.47,31.68-46.55,37.37-54.12,54.19-71.57,79.79-117.21,14.39-25.66,24.91-48.29,31.78-64,14.5-33.06,23.41-60.93,30.68-84.64,3.51-11.44,6.89-22.89,10.14-34.25"/><path class="cls-11" d="M387.71,4.47c-3.38,12.33-6.91,24.78-10.58,37.2-7.09,24-15.88,52.56-30.67,86.73a710.68,710.68,0,0,1-32.32,65.42c-26.38,47-43.05,63.24-82,119.41-12.9,18.64-23.37,33.76-32.43,47.52A490.56,490.56,0,0,0,128.81,529c-4.25,19.53-7,27.47-8.48,61.33h0"/><path class="cls-12" d="M141.84,606.91c.41-34.36,2.17-41.55,5.78-60.88a474.64,474.64,0,0,1,43.2-126.9,469.18,469.18,0,0,1,26.86-46c9.15-13.9,19.84-29.28,33.19-48.48,40.53-58.22,57.05-73.2,84.22-121.61A691.53,691.53,0,0,0,368,136.19c15.07-35.3,23.75-64.48,30.67-88.83,3.68-12.94,7.22-25.91,10.61-38.75"/><path class="cls-13" d="M163.23,620.89c-.59-32.49.28-39.13,3.2-57.78a450.83,450.83,0,0,1,42-130.52,435.74,435.74,0,0,1,27.24-47c9.23-14,20.15-29.68,33.93-49.44,42.11-60.27,58.49-74,86.44-123.81A679.81,679.81,0,0,0,389.44,144c15.34-36.43,23.91-66.27,30.66-90.93,3.56-13,7-26,10.27-38.91"/><path class="cls-14" d="M184.17,632.47c-1.37-28.47-1.17-34.76,1.06-52.28,8.13-63.94,30.1-112.05,40.8-134.14A409.73,409.73,0,0,1,253.65,398c9.32-14.18,20.46-30.08,34.69-50.4,43.68-62.32,59.92-74.83,88.65-126a667.5,667.5,0,0,0,33.93-69.78c15.56-37.57,24.05-68,30.67-93,3.29-12.56,6.48-25.16,9.55-37.65"/><path class="cls-15" d="M204.75,642c-1.86-22.76-2.27-28.9-.71-44.77,6.58-66.61,29.4-116.11,39.6-137.75,14.72-31.23,31-54.33,63.44-100.53,45.26-64.38,61.34-75.64,90.86-128.21a649.21,649.21,0,0,0,34.47-71.23c15.87-38.68,24.24-69.82,30.66-95.12,3-11.65,5.83-23.33,8.6-34.93"/><path class="cls-16" d="M493.89,40.49c-3,11.94-6,24-9.2,36-6.66,25-15.14,55.43-30.65,93a672,672,0,0,1-33.71,69.88c-28.55,51.28-44.47,63.94-87.71,126.48-3.81,5.55-7.4,10.78-10.78,15.74-24.15,35.13-37.89,56.28-50.36,83.34-10.27,22.3-32,70.74-38.86,135.1-1.89,17.61-1.58,24.19.31,52.46h0"/><path class="cls-17" d="M260.78,660.1c-1.69-31.33-1.74-38.61.42-57.31,7.17-62.1,27.78-109.48,38.12-132.44,12-26.7,25.52-47.78,48.47-82.11,3.28-4.9,6.7-10.08,10.37-15.53,41.06-60.82,57-74.75,84.55-124.75a699.4,699.4,0,0,0,33-68.53c15.13-36.52,23.8-66.32,30.62-90.95,3.24-11.71,6.38-23.44,9.42-35.07"/><path class="cls-18" d="M288.5,665.16c-1.32-32.15-1.12-40.33,1.27-59.61,7.43-59.85,27-106.16,37.39-129.78,11.6-26.34,24.77-47.4,46.59-80.88,3.16-4.85,6.42-10,10-15.32,39-59,54.8-74.31,81.38-123a730.48,730.48,0,0,0,32.22-67.19c14.77-35.43,23.58-64.57,30.6-88.86C531,89.76,534,79,537,68.31"/><path class="cls-19" d="M316,667.84c-.82-31-.24-40.14,2.33-59.53,7.65-57.6,26.2-102.83,36.65-127.12,11.19-26,24-47,44.7-79.65,3-4.79,6.16-9.85,9.55-15.11,36.87-57.24,52.62-73.87,78.23-121.28,14.46-26.73,24.82-50.12,31.46-65.84,14.49-34.32,23.35-62.82,30.58-86.78q4.11-13.64,8-27.23"/><path class="cls-20" d="M343.53,668.26c-.26-28.06.71-38.2,3.4-57.19,7.83-55.35,25.41-99.51,35.91-124.46,10.78-25.6,23.24-46.66,42.82-78.42,2.92-4.74,5.89-9.73,9.13-14.89,34.8-55.44,50.44-73.43,75.07-119.56,13.88-25.91,24-48.74,30.71-64.49,14.14-33.23,23.12-61.07,30.56-84.7q3.15-10,6.21-20"/><path class="cls-21" d="M371.15,666.43c.32-23.77,1.64-34.63,4.35-52.6,8-53.1,24.64-96.17,35.18-121.8,10.39-25.23,22.47-46.3,40.94-77.19,2.8-4.69,5.62-9.62,8.71-14.68,32.74-53.63,48.26-73,71.91-117.82,13.29-25.11,23.19-47.36,30-63.15,13.78-32.14,22.89-59.32,30.54-82.61q1.72-5.24,3.41-10.46"/><path class="cls-22" d="M399.08,662.21c.84-18.52,2.43-29.53,5-45.62,8.12-50.85,23.86-92.84,34.44-119.14,10-24.85,21.69-45.94,39.05-76,2.68-4.64,5.36-9.5,8.31-14.47,30.67-51.81,46.07-72.54,68.75-116.09,12.7-24.3,22.36-46,29.2-61.8,13.1-30.29,22.19-56.25,29.93-78.81"/><path class="cls-23" d="M629.9,177.44c-6.72,18.42-14.51,38.83-24.44,61.63-6.91,15.87-16.34,37-28.45,60.45-21.7,42.26-37,64.38-65.59,114.36-2.8,4.88-5.33,9.67-7.89,14.26-16.27,29.14-27.55,50.26-37.17,74.73-10.6,27-25.48,67.87-33.7,116.48-2.2,13-3.83,23.07-5,36h0"/><path class="cls-24" d="M644.18,207.83c-5,12.84-10.65,26.53-17.08,41.18-7,15.9-16.19,36.43-27.7,59.11-20.73,41-35.83,64.48-62.44,112.62-2.64,4.79-5,9.51-7.48,14.05-15.18,28.26-26,49.42-35.28,73.5-10.62,27.66-24.67,67.45-33,113.82-1.49,8.32-2.78,15.6-3.88,23.12h0"/><path class="cls-25" d="M488.66,631c.37-2,.75-4,1.15-6.11,8.35-44.14,21.61-82.81,32.23-111.16,8.88-23.69,19.29-44.9,33.4-72.27,2.31-4.49,4.57-9.14,7.07-13.84,24.58-46.3,39.52-71.21,59.27-110.89,10.93-21.86,19.89-41.82,27-57.76q3.84-8.67,7.33-16.91"/><path class="cls-26" d="M664.79,281.31h0c-6,13.22-12.84,28.13-20.63,44C625.4,363.69,610.64,390,588.05,434.46c-2.34,4.61-4.47,9.19-6.65,13.63-13,26.47-23,47.74-31.52,71-9.21,25.18-19.83,56.77-28,92"/><path class="cls-27" d="M668.93,328.92c-.78,1.65-1.58,3.31-2.38,5-17.79,37.1-32.35,64.84-53,107.42-2.19,4.52-4.18,9-6.24,13.42-12,25.57-21.45,46.91-29.63,69.81-6.12,17.15-12.63,36.51-18.64,57.46h0"/><path class="cls-28" d="M663.14,396.82c-7.52,15.84-15.29,32.34-24,51.36-2,4.43-3.9,8.87-5.83,13.22-10.95,24.66-19.92,46.06-27.75,68.56,0,.15-.1.3-.16.45s0,0,0,0"/></g></g></svg>