<svg xmlns="http://www.w3.org/2000/svg" xmlns:xlink="http://www.w3.org/1999/xlink" viewBox="0 0 1162.23 1151.13"><defs><style>.cls-1,.cls-10,.cls-11,.cls-12,.cls-13,.cls-14,.cls-15,.cls-16,.cls-17,.cls-18,.cls-19,.cls-20,.cls-21,.cls-22,.cls-23,.cls-24,.cls-25,.cls-26,.cls-27,.cls-28,.cls-29,.cls-3,.cls-30,.cls-31,.cls-32,.cls-33,.cls-34,.cls-35,.cls-4,.cls-5,.cls-6,.cls-7,.cls-8,.cls-9{fill:none;}.cls-2{clip-path:url(#clip-path);}.cls-10,.cls-11,.cls-12,.cls-13,.cls-14,.cls-15,.cls-16,.cls-17,.cls-18,.cls-19,.cls-20,.cls-21,.cls-22,.cls-23,.cls-24,.cls-25,.cls-26,.cls-27,.cls-28,.cls-29,.cls-3,.cls-30,.cls-31,.cls-32,.cls-33,.cls-34,.cls-35,.cls-4,.cls-5,.cls-6,.cls-7,.cls-8,.cls-9{stroke-miterlimit:10;stroke-width:3.5px;}.cls-3{stroke:url(#linear-gradient);}.cls-4{stroke:url(#linear-gradient-2);}.cls-5{stroke:url(#linear-gradient-3);}.cls-6{stroke:url(#linear-gradient-4);}.cls-7{stroke:url(#linear-gradient-5);}.cls-8{stroke:url(#linear-gradient-6);}.cls-9{stroke:url(#linear-gradient-7);}.cls-10{stroke:url(#linear-gradient-8);}.cls-11{stroke:url(#linear-gradient-9);}.cls-12{stroke:url(#linear-gradient-10);}.cls-13{stroke:url(#linear-gradient-11);}.cls-14{stroke:url(#linear-gradient-12);}.cls-15{stroke:url(#linear-gradient-13);}.cls-16{stroke:url(#linear-gradient-14);}.cls-17{stroke:url(#linear-gradient-15);}.cls-18{stroke:url(#linear-gradient-16);}.cls-19{stroke:url(#linear-gradient-17);}.cls-20{stroke:url(#linear-gradient-18);}.cls-21{stroke:url(#linear-gradient-19);}.cls-22{stroke:url(#linear-gradient-20);}.cls-23{stroke:url(#linear-gradient-21);}.cls-24{stroke:url(#linear-gradient-22);}.cls-25{stroke:url(#linear-gradient-23);}.cls-26{stroke:url(#linear-gradient-24);}.cls-27{stroke:url(#linear-gradient-25);}.cls-28{stroke:url(#linear-gradient-26);}.cls-29{stroke:url(#linear-gradient-27);}.cls-30{stroke:url(#linear-gradient-28);}.cls-31{stroke:url(#linear-gradient-29);}.cls-32{stroke:url(#linear-gradient-30);}.cls-33{stroke:url(#linear-gradient-31);}.cls-34{stroke:url(#linear-gradient-32);}.cls-35{stroke:url(#linear-gradient-33);}</style><clipPath id="clip-path"><circle class="cls-1" cx="609.21" cy="506.48" r="333.96"/></clipPath><linearGradient id="linear-gradient" y1="347.18" x2="457.07" y2="347.18" gradientUnits="userSpaceOnUse"><stop offset="0" stop-color="#13febe"/><stop offset="1" stop-color="#27a1fc"/></linearGradient><linearGradient id="linear-gradient-2" x1="29.04" y1="361.84" x2="477.71" y2="361.84" xlink:href="#linear-gradient"/><linearGradient id="linear-gradient-3" x1="58.07" y1="376.5" x2="498.34" y2="376.5" xlink:href="#linear-gradient"/><linearGradient id="linear-gradient-4" x1="87.11" y1="391.17" x2="518.98" y2="391.17" xlink:href="#linear-gradient"/><linearGradient id="linear-gradient-5" x1="116.15" y1="405.83" x2="539.61" y2="405.83" xlink:href="#linear-gradient"/><linearGradient id="linear-gradient-6" x1="145.19" y1="420.49" x2="560.25" y2="420.49" xlink:href="#linear-gradient"/><linearGradient id="linear-gradient-7" x1="174.23" y1="435.15" x2="580.88" y2="435.15" xlink:href="#linear-gradient"/><linearGradient id="linear-gradient-8" x1="203.28" y1="449.82" x2="601.52" y2="449.82" xlink:href="#linear-gradient"/><linearGradient id="linear-gradient-9" x1="232.32" y1="464.48" x2="622.15" y2="464.48" xlink:href="#linear-gradient"/><linearGradient id="linear-gradient-10" x1="261.37" y1="479.14" x2="642.79" y2="479.14" xlink:href="#linear-gradient"/><linearGradient id="linear-gradient-11" x1="290.42" y1="493.8" x2="663.42" y2="493.8" xlink:href="#linear-gradient"/><linearGradient id="linear-gradient-12" x1="319.47" y1="508.46" x2="684.06" y2="508.46" xlink:href="#linear-gradient"/><linearGradient id="linear-gradient-13" x1="348.52" y1="523.12" x2="704.69" y2="523.12" xlink:href="#linear-gradient"/><linearGradient id="linear-gradient-14" x1="377.58" y1="537.79" x2="725.32" y2="537.79" xlink:href="#linear-gradient"/><linearGradient id="linear-gradient-15" x1="406.63" y1="552.45" x2="745.96" y2="552.45" xlink:href="#linear-gradient"/><linearGradient id="linear-gradient-16" x1="435.69" y1="567.11" x2="766.59" y2="567.11" xlink:href="#linear-gradient"/><linearGradient id="linear-gradient-17" x1="464.75" y1="581.78" x2="787.22" y2="581.78" xlink:href="#linear-gradient"/><linearGradient id="linear-gradient-18" x1="490.96" y1="588.04" x2="810.67" y2="588.04" xlink:href="#linear-gradient"/><linearGradient id="linear-gradient-19" x1="517.16" y1="594.31" x2="834.11" y2="594.31" xlink:href="#linear-gradient"/><linearGradient id="linear-gradient-20" x1="543.37" y1="600.58" x2="857.55" y2="600.58" xlink:href="#linear-gradient"/><linearGradient id="linear-gradient-21" x1="569.57" y1="606.84" x2="880.99" y2="606.84" xlink:href="#linear-gradient"/><linearGradient id="linear-gradient-22" x1="595.78" y1="613.11" x2="904.44" y2="613.11" xlink:href="#linear-gradient"/><linearGradient id="linear-gradient-23" x1="621.99" y1="619.38" x2="927.87" y2="619.38" xlink:href="#linear-gradient"/><linearGradient id="linear-gradient-24" x1="648.19" y1="625.65" x2="951.31" y2="625.65" xlink:href="#linear-gradient"/><linearGradient id="linear-gradient-25" x1="674.4" y1="631.92" x2="974.75" y2="631.92" xlink:href="#linear-gradient"/><linearGradient id="linear-gradient-26" x1="700.61" y1="638.19" x2="998.19" y2="638.19" xlink:href="#linear-gradient"/><linearGradient id="linear-gradient-27" x1="726.81" y1="644.46" x2="1021.63" y2="644.46" xlink:href="#linear-gradient"/><linearGradient id="linear-gradient-28" x1="753.02" y1="650.73" x2="1045.06" y2="650.73" xlink:href="#linear-gradient"/><linearGradient id="linear-gradient-29" x1="779.23" y1="657" x2="1068.5" y2="657" xlink:href="#linear-gradient"/><linearGradient id="linear-gradient-30" x1="805.43" y1="663.27" x2="1091.93" y2="663.27" xlink:href="#linear-gradient"/><linearGradient id="linear-gradient-31" x1="831.64" y1="669.54" x2="1115.37" y2="669.54" xlink:href="#linear-gradient"/><linearGradient id="linear-gradient-32" x1="857.85" y1="675.81" x2="1138.8" y2="675.81" xlink:href="#linear-gradient"/><linearGradient id="linear-gradient-33" x1="884.06" y1="682.08" x2="1162.23" y2="682.08" xlink:href="#linear-gradient"/></defs><title>Asset 3</title><g id="Layer_2" data-name="Layer 2"><g id="Layer_1-2" data-name="Layer 1"><g class="cls-2"><path class="cls-3" d="M1.22,693.1a1909.82,1909.82,0,0,0,257-309A1910.1,1910.1,0,0,0,455.44.62"/><path class="cls-4" d="M476.07,1.38c-16.24,44.21-36.28,95.71-61,149.9-9.32,20.43-19.43,41.64-30.7,63.68-8.08,15.77-16.89,32.36-26.41,49.41-17.74,31.77-36,61.59-57.63,95.18-8,12.49-16,24.74-24.16,36.94-7.55,11.34-14.91,22.35-22.34,33.26-18.84,27.7-38.28,56-57.6,83.48-19.11,27.16-38.35,50.5-57.5,79.61-19,28.82-39.29,51-57.93,72.51-17.5,20.21-34.16,39.38-50.51,56.34"/><path class="cls-5" d="M496.7,2.13C481,46.22,461.27,100.46,436.56,157c-9.09,20.77-19.07,42.65-30.7,65.77-7.93,15.78-16.94,33-26.95,50.87-18.52,33.15-36.65,61.74-59.83,97.38-8.46,13.05-16.71,25.56-24.92,37.9-7.81,11.74-15.2,23-22.71,34.32-18.18,27.35-37.4,57.33-56.41,87.1-17.57,27.51-35.33,49-53.16,83.73-17,33.06-36.75,54.83-53.91,76.6-17,21.59-32.81,42.19-48.6,59.65"/><path class="cls-6" d="M517.32,2.89c-15.1,44-34.6,100.93-59.28,159.77-8.86,21.11-18.73,43.65-30.69,67.87-7.8,15.77-17,33.54-27.49,52.31-19.31,34.54-37.29,61.89-62.05,99.59-8.91,13.6-17.37,26.38-25.67,38.86-8.06,12.14-15.5,23.68-23.09,35.38-17.52,27-36.53,58.55-55.2,90.71-16.12,27.77-32.42,47.37-48.84,87.85-15.09,37.21-34.16,58.8-49.88,80.69-16.55,23.05-31.47,45-46.68,63"/><path class="cls-7" d="M538,3.65c-14.54,43.82-33.79,103.51-58.43,164.7-8.64,21.44-18.38,44.65-30.69,70-7.67,15.76-17,34.14-28,53.77-20.1,35.93-37.93,62-64.27,101.79-9.35,14.16-18,27.2-26.42,39.81s-15.8,24.36-23.47,36.45c-16.88,26.62-35.72,59.7-54,94.33-14.75,27.94-29.6,45.7-44.5,92-13.31,41.31-31.51,62.83-45.86,84.79-16,24.55-30.13,47.83-44.77,66.26"/><path class="cls-8" d="M558.58,4.41C544.6,48.09,525.58,110.5,501,174c-8.42,21.77-18.05,45.65-30.69,72.05-7.54,15.76-17.08,34.73-28.55,55.23-20.88,37.31-38.58,62.19-66.49,104-9.79,14.72-18.7,28-27.17,40.77-8.58,12.95-16.11,25-23.84,37.51-16.26,26.24-35,60.79-52.8,97.94-13.46,28.06-26.86,44-40.18,96.09-11.59,45.37-28.8,66.92-41.83,88.88-15.5,26.11-28.78,50.64-42.85,69.57"/><path class="cls-9" d="M579.21,5.16C565.79,48.72,547,113.83,522.48,179.73c-8.21,22.09-17.72,46.64-30.68,74.15-7.42,15.74-17.14,35.32-29.1,56.68C441,349.26,423.49,372.89,394,416.74c-10.24,15.28-19.38,28.84-27.93,41.74-8.83,13.35-16.42,25.68-24.22,38.56-15.65,25.86-34.31,61.84-51.6,101.57-12.24,28.13-24.19,42.3-35.84,100.2-9.95,49.44-26,71.08-37.81,93-14.92,27.72-27.44,53.45-40.94,72.87"/><path class="cls-10" d="M599.84,5.92C587,49.34,568.37,117.15,544,185.42c-8,22.42-17.39,47.63-30.68,76.24-7.3,15.73-17.19,35.92-29.63,58.13-22.45,40.09-39.85,62.49-70.91,108.39-10.68,15.84-20,29.66-28.67,42.7-9.1,13.75-16.74,26.33-24.6,39.62-15.06,25.46-33.73,62.84-50.4,105.18C298,643.85,287.48,656.28,277.55,720c-8.33,53.51-23.19,75.27-33.78,97.08-14.27,29.37-26.1,56.26-39,76.17"/><path class="cls-11" d="M620.47,6.68c-12.3,43.29-30.73,113.79-55,184.42-7.83,22.75-17.08,48.63-30.68,78.34C527.57,285.16,517.53,306,504.6,329c-23.24,41.47-40.49,62.64-73.13,110.59-11.12,16.4-20.7,30.47-29.42,43.66-9.35,14.15-17.06,27-25,40.68-14.48,25.06-33.22,63.8-49.2,108.79-10,28.19-19,38.91-27.18,108.45-6.76,57.58-20.31,79.49-29.76,101.16-13.55,31.08-24.75,59.08-37.11,79.49"/><path class="cls-12" d="M641.1,7.44c-11.74,43.15-30,116.34-54.17,189.35-7.64,23.07-16.77,49.61-30.68,80.44-7.08,15.7-17.29,37.1-30.71,61-24,42.86-41.12,62.78-75.34,112.79C438.64,468,428.83,482.35,420,495.68c-9.61,14.56-17.39,27.62-25.36,41.74-13.9,24.64-32.82,64.73-48,112.41-9,28.19-16.49,37.22-22.85,112.56-5.21,61.67-17.38,83.73-25.74,105.26-12.75,32.8-23.41,61.89-35.2,82.79"/><path class="cls-13" d="M661.73,8.19c-11.18,43-29.31,118.9-53.32,194.29C601,225.87,591.94,253.07,577.73,285c-7,15.68-17.33,37.7-31.24,62.5-24.8,44.24-41.76,62.93-77.56,115-12,17.52-22,32.12-30.92,45.59-9.86,15-17.73,28.27-25.73,42.8-13.35,24.22-32.53,65.65-46.8,116-8,28.19-14,35.54-18.52,116.68-3.68,65.77-14.38,88-21.71,109.36C313.39,927.49,303.19,957.65,292,979"/><path class="cls-14" d="M682.36,9c-10.62,42.89-28.62,121.44-52.47,199.22-7.27,23.71-16.17,51.57-30.67,84.62-6.87,15.67-17.39,38.29-31.78,63.95-25.59,45.63-42.41,63.08-79.77,117.19C475.21,492,465,506.86,456,520.48c-10.12,15.36-18.07,28.9-26.11,43.86-12.8,23.8-32.33,66.55-45.59,119.64-7,28.17-11.5,33.87-14.19,120.8-2.16,69.86-11.35,92.24-17.69,113.45-10.87,36.32-20.72,67.52-31.37,89.4"/><path class="cls-15" d="M703,9.71c-10.06,42.76-28,124-51.62,204.15-7.09,24-15.88,52.55-30.67,86.72A712.84,712.84,0,0,1,588.39,366c-26.38,47-43,63.23-82,119.39C493.5,504,483,519.12,474,532.87a491.07,491.07,0,0,0-70.88,168.18c-6.13,28.18-9,32.22-9.86,124.92-.65,74-8.26,96.5-13.66,117.55-9.78,38.1-19.38,70.33-29.45,92.7"/><path class="cls-16" d="M723.62,10.47C714.13,53.09,696.33,137,672.85,219.55c-6.92,24.34-15.6,53.52-30.66,88.81a690.44,690.44,0,0,1-32.86,66.86c-27.16,48.4-43.68,63.38-84.2,121.59-13.34,19.19-24,34.57-33.18,48.46a469.18,469.18,0,0,0-26.86,46A474.64,474.64,0,0,0,421.9,718.13c-5.26,28.18-6.59,30.57-5.53,129,.84,78.1-5.15,100.75-9.64,121.64-8.58,39.88-18,73.15-27.54,96"/><path class="cls-17" d="M744.24,11.22c-8.92,42.5-26.64,129.06-49.91,214-6.75,24.65-15.32,54.49-30.66,90.91a676.15,676.15,0,0,1-33.39,68.3C602.34,434.25,586,448,543.86,508.25c-13.78,19.75-24.7,35.39-33.93,49.42a434.65,434.65,0,0,0-27.23,47,450.87,450.87,0,0,0-42,130.49c-4.41,28.21-4.14,28.93-1.19,133.16,2.32,82.22-2,105-5.62,125.73-7.27,41.65-16.69,76-25.62,99.32"/><path class="cls-18" d="M764.87,12c-8.36,42.36-26.13,131.56-49.06,219-6.62,25-15.1,55.44-30.65,93a667.61,667.61,0,0,1-33.93,69.76c-28.73,51.18-45,63.68-88.64,126-14.22,20.32-25.36,36.21-34.68,50.39a409.62,409.62,0,0,0-27.61,48.1c-10.7,22.07-32.66,70.18-40.79,134.1-3.59,28.25-1.93,27.31,3.13,137.28,3.64,86.37,1.19,109.18-1.59,129.83-5.85,43.4-15.34,78.77-23.71,102.62"/><path class="cls-19" d="M785.5,12.74C777.7,55,760.1,146.87,737.3,236.62c-6.43,25.29-14.8,56.42-30.66,95.09a649.76,649.76,0,0,1-34.46,71.22c-29.52,52.56-45.6,63.82-90.85,128.19-32.48,46.19-48.71,69.29-63.43,100.51-10.19,21.63-33,71.12-39.59,137.72-2.79,28.3.71,25.67,7.47,141.4,5.29,90.49,4.39,113.36,2.43,133.92a505.09,505.09,0,0,1-21.79,105.93"/><path class="cls-20" d="M809,30.18c-8.89,42.12-27,131.13-50.06,218.46-6.66,24.94-15.13,55.42-30.63,93a670.61,670.61,0,0,1-33.72,69.87C666,462.8,650.09,475.45,606.87,538c-3.82,5.55-7.4,10.77-10.79,15.73C572,588.84,558.21,610,545.74,637c-10.27,22.3-32,70.73-38.86,135.07-3.06,28.59-.34,28.09,5.6,138.49,4.54,86.81,3.35,110.15,1.22,131.23a526.19,526.19,0,0,1-21.07,103.92"/><path class="cls-21" d="M832.41,47.63c-10,42-28.41,128.2-51.9,213-6.82,24.62-15.48,54.42-30.62,90.93a695.47,695.47,0,0,1-33,68.52c-27.56,50-43.48,63.92-84.53,124.73-3.67,5.45-7.09,10.62-10.36,15.52-22.95,34.32-36.44,55.4-48.47,82.1-10.33,22.95-30.94,70.32-38.11,132.41-3.34,28.87-1.4,30.51,3.71,135.59,3.8,83.13,2.26,106.92,0,128.52a561.2,561.2,0,0,1-20.36,101.92"/><path class="cls-22" d="M855.86,65.07C844.8,107,825.92,190.31,802.12,272.68c-7,24.29-15.83,53.42-30.6,88.85a727.3,727.3,0,0,1-32.21,67.18c-26.58,48.69-42.42,64-81.37,123-3.53,5.35-6.8,10.47-10,15.31-21.82,33.47-35,54.53-46.58,80.87C591,671.49,571.46,717.8,564,777.63c-3.62,29.16-2.22,32.92,1.84,132.68,3.24,79.44,1.2,103.7-1.17,125.83a597.69,597.69,0,0,1-19.65,99.91"/><path class="cls-23" d="M879.31,82.52c-12.14,41.77-31.48,122.26-55.59,202.18-7.22,24-16.08,52.46-30.57,86.77-6.64,15.71-17,39.1-31.46,65.83-25.6,47.4-41.34,64-78.21,121.26-3.39,5.25-6.5,10.31-9.54,15.1-20.7,32.62-33.51,53.67-44.7,79.64-10.45,24.28-29,69.51-36.64,127.09-3.91,29.45-3.2,35.34,0,129.78,2.55,75.75.14,100.48-2.38,123.13a640.53,640.53,0,0,1-18.93,97.9"/><path class="cls-24" d="M902.77,100c-13.23,41.66-33,119.3-57.44,196.77-7.43,23.62-16.42,51.45-30.55,84.68C808.07,397.16,798,420,784.07,445.89,759.45,492,743.81,510,709,565.42c-3.24,5.16-6.21,10.15-9.13,14.89-19.58,31.75-32,52.81-42.81,78.41-10.5,24.94-28.08,69.1-35.91,124.43C617,812.89,617,820.92,619.27,910c1.85,72.07-.92,97.25-3.58,120.42a693,693,0,0,1-18.22,95.9"/><path class="cls-25" d="M926.22,117.41C911.91,159,891.58,233.73,866.94,308.75c-7.65,23.29-16.76,50.46-30.54,82.6-6.77,15.79-16.66,38-29.95,63.13-23.65,44.83-39.17,64.18-71.89,117.8-3.1,5.06-5.92,10-8.72,14.68-18.47,30.89-30.55,51.95-40.93,77.17-10.54,25.63-27.18,68.69-35.17,121.78-4.52,30-5.18,40.19-3.77,124,1.15,68.39-2,94-4.78,117.73a763.13,763.13,0,0,1-17.5,93.9"/><path class="cls-26" d="M949.67,134.85c-15.4,41.43-36.23,113.34-61.12,185.92-7.87,23-17.1,49.46-30.52,80.52-6.84,15.82-16.5,37.49-29.2,61.78-22.67,43.54-38.06,64.27-68.74,116.07-2.94,5-5.62,9.83-8.3,14.47-17.36,30-29,51.1-39,75.94-10.58,26.3-26.32,68.28-34.44,119.12-4.84,30.31-6.19,42.61-5.64,121.07.44,64.71-3,90.81-6,115a849,849,0,0,1-16.78,91.89"/><path class="cls-27" d="M973.13,152.29c-16.49,41.32-37.86,110.36-63,180.5-8.09,22.62-17.43,48.46-30.49,78.43-6.91,15.87-16.34,37-28.45,60.44-21.69,42.25-37,64.37-65.58,114.34-2.79,4.88-5.33,9.67-7.89,14.26-16.27,29.13-27.54,50.25-37.16,74.71-10.6,27-25.47,67.86-33.7,116.46-5.18,30.6-7.2,45-7.51,118.16-.27,61-4.07,87.59-7.19,112.34-4.47,35.43-10.77,66-16.07,89.88"/><path class="cls-28" d="M996.58,169.74c-17.57,41.2-39.5,107.36-64.82,175.07-8.33,22.28-17.78,47.46-30.47,76.35-7,15.9-16.18,36.43-27.7,59.1-20.72,41-35.82,64.46-62.42,112.59-2.65,4.79-5,9.52-7.48,14.06-15.18,28.25-26,49.41-35.27,73.48-10.62,27.66-24.67,67.43-33,113.79-5.52,30.89-8.22,47.47-9.39,115.27-1,57.35-5.1,84.37-8.38,109.63-4.45,34.22-10.37,64.08-15.36,87.88"/><path class="cls-29" d="M1020,187.18c-18.65,41.09-41.16,104.37-66.66,169.65-8.57,21.94-18.14,46.46-30.46,74.27-7,15.93-16,35.89-26.94,57.75-19.74,39.67-34.68,64.58-59.26,110.86-2.5,4.7-4.75,9.36-7.07,13.85-14.1,27.36-24.51,48.56-33.39,72.25-10.62,28.34-23.88,67-32.22,111.13-5.9,31.17-9.27,49.9-11.27,112.37-1.71,53.67-6.13,81.15-9.59,106.93-4.42,33-10,62.13-14.64,85.87"/><path class="cls-30" d="M1043.48,204.63c-19.74,41-42.84,101.35-68.5,164.22-8.82,21.6-18.5,45.45-30.44,72.19-7.13,16-15.85,35.35-26.19,56.4-18.76,38.38-33.52,64.7-56.1,109.13-2.35,4.61-4.47,9.2-6.66,13.64-13,26.46-23,47.72-31.5,71-10.62,29-23.12,66.58-31.49,108.48-6.29,31.45-10.33,52.33-13.14,109.46-2.46,50-7.16,77.93-10.79,104.24-4.39,31.8-9.56,60.18-13.93,83.87"/><path class="cls-31" d="M1066.94,222.07c-20.83,40.86-44.55,98.34-70.36,158.81-9.07,21.24-18.85,44.44-30.41,70.1-7.21,16-15.69,34.81-25.44,55-17.79,37.09-32.34,64.83-52.94,107.4-2.19,4.52-4.18,9-6.24,13.43-12,25.56-21.46,46.89-29.63,69.78-10.61,29.73-22.38,66.14-30.75,105.82-6.69,31.72-11.41,54.76-15,106.56-3.22,46.32-8.18,74.71-12,101.53-4.35,30.61-9.16,58.24-13.22,81.87"/><path class="cls-32" d="M1090.39,239.51c-21.91,40.75-46.27,95.32-72.2,153.39-9.33,20.89-19.21,43.43-30.4,68-7.29,16-15.53,34.27-24.68,53.7-16.81,35.8-31.14,65-49.79,105.67-2,4.43-3.89,8.87-5.82,13.21-11,24.66-19.92,46.06-27.74,68.56-10.59,30.43-21.67,65.7-30,103.16-7.13,32-12.51,57.19-16.88,103.65-4,42.65-9.19,71.5-13.19,98.84-4.31,29.4-8.76,56.29-12.51,79.86"/><path class="cls-33" d="M1113.84,257c-23,40.63-48,92.27-74,148-9.6,20.54-19.58,42.42-30.38,65.94-7.37,16.05-15.37,33.74-23.93,52.36-15.83,34.51-29.92,65.11-46.63,103.93-1.87,4.34-3.62,8.7-5.41,13-9.92,23.75-18.37,45.23-25.86,67.33-10.54,31.13-21,65.24-29.28,100.5-7.59,32.24-13.65,59.61-18.75,100.75-4.83,39-10.2,68.28-14.4,96.14-4.25,28.19-8.35,54.34-11.79,77.85"/><path class="cls-34" d="M1137.3,274.4c-24.08,40.53-49.78,89.22-75.89,142.54-9.89,20.17-20,41.4-30.36,63.86-7.48,16.07-15.21,33.2-23.18,51C993,565,979.2,597.08,964.4,634c-1.71,4.26-3.34,8.53-5,12.79-8.91,22.84-16.82,44.39-24,66.1-10.5,31.83-20.31,64.78-28.55,97.84-8.09,32.48-14.84,62-20.63,97.84-5.69,35.28-11.13,65.09-15.59,93.44-4.15,27-7.95,52.4-11.07,75.85"/><path class="cls-35" d="M1160.75,291.85A1908.74,1908.74,0,0,0,885.8,1073"/></g></g></g></svg>